<?xml version="1.0" encoding="UTF-8"?>
<svg id="Camada_2" data-name="Camada 2" xmlns="http://www.w3.org/2000/svg" xmlns:xlink="http://www.w3.org/1999/xlink" viewBox="0 0 1607.09 601.67">
  <defs>
    <style>
      .cls-1 {
        fill: none;
      }

      .cls-2 {
        fill: #603a2e;
      }

      .cls-3 {
        clip-path: url(#clippath);
      }
    </style>
    <clipPath id="clippath">
      <rect class="cls-1" width="1607.09" height="601.67"/>
    </clipPath>
  </defs>
  <g id="Camada_1-2" data-name="Camada 1">
    <g class="cls-3">
      <rect x="-.47" y="-1.9" width="1602.38" height="599.14"/>
      <g>
        <g>
          <path class="cls-2" d="M856.56,884.66h-20.25c.25-1.36,1.24-2.28,2.32-3.41,16.76-17.69,23.43-41.88,18.03-65.75-2.27-10.05-6.73-18.82-12.35-27.32-6.31-9.54-15.56-4.41-20.89-4.98l-28.08-2.99c-11.36-1.21-22.16-.98-33.33,2-2.54-4.2-4.49-7.62-6.06-12.22,9.68-3.32,19.41-4.94,29.26-3.82l28.85,3.27c2.99.34,9.39-.39,8.97-4.15l-2.79-24.91c-.2-.94-1.27-.98-1.67-.1-3.14,6.85-8.75,11.82-16.47,12.32-22.19,1.46-26.33-7.57-32.26-8.6-43.81-7.55-86.12-20.8-125.15-42.03l-9.78-5.32c-.66-.36-1.74-.76-1.58-1.72.1-.59.31-1.25.9-2.13-.46-1.01-1.27-.8-1.91-.17l-10.38,10.14-52.76,46.8c-32.25,25.53-73.36,40.71-114.58,37.22-12.6-1.07-24.55-2.57-36.68-6.26l-53.04-16.12c-2.62-.8-4.53-3.15-5.4-4.77-1.11-2.06-.99-6.33.89-7.58,4.24-2.82,9.14-1.23,13.6-.02l42.86,11.61c16.74,4.54,33.18,7.08,50.71,7.66,25.1.83,49.26-6.87,71.03-19.74,40.65-24.03,83.23-61.66,108.19-102.04,13.33-21.56,19.27-46.52,17.15-71.68l-10.37-1.78c-5.21-.89-8.77-3.98-13.46-7.63-2.74,36-21.46,64.07-46.25,88.14-25.36,24.62-58.62,45.36-90.45,60.64-7.9,3.8-15.63,6.5-24.25,7.86l-.02-12.81c42.08-18.61,81.81-42.74,114.71-74.93,17.31-16.94,33.74-46.11,33.61-69.77l-.05-8.69c-.03-5.67-.61-11.42-4.84-15.75-7.76-7.93-24.87.38-33.91,8.59l9.13,11.58c16.04,20.33,9.43,50.65-8.08,68.03l-9.03,8.97c-19.52,19.38-58.82,40.19-84.72,51.38-4.19,1.81-8.8-.59-10.02-4.29-1.06-3.22.85-7,4.57-8.9l42.19-21.53c24.06-13.79,50.85-32.98,59.46-59.77,2.94-9.15,1.88-18.31-3.76-26.09-15.48-21.36-45.3-39.1-69.37-50.51-11.92-5.65-23.51-8.96-36.06-12.53-4.94-1.4-8.43-7.38-10.46-12.01-22.59-51.68-29.32-103.82-23-159.96,5.11-45.43,23.61-89.93,52.94-124.66l21.09-24.97c9.48-11.23,18.31-22.23,25.92-34.84l21.7-35.95c.84-1.4,2.85-1.13,4.36-.69,28.76,8.41,57.92,12.64,87.83,14.19l31.1,1.61c12.09.63,23.71,1.79,35.42,5.18,17.63,5.1,33.05,14.2,46.05,27.13,26.43,26.28,44.1,59.82,56.14,95.01,5.01,14.64,8.6,29.13,9.72,44.67l-.07,35.28c-1.26,18.12-4.12,35.52-9.37,52.79l-9.52,24.09c-9.43,19.73-17.71,39.32-24.62,60.15l-14.13-5.58c4.61-19.81,12.22-37.36,21.05-55.1,22.31-44.81,28.54-102.78,12.22-150.2-8.2-23.84-23.94-57.47-39.68-76.35-24.55-29.43-56.22-36.17-93.2-39.23l-42.57-2.84c-22.15-1.48-43.08-6.73-64.92-13.15-14.41,25.25-30.84,47.88-49.05,69.8l-23.37,28.15c-23.46,28.26-35.44,66.87-37.62,103.39l-1.53,25.76-.71,24.94-.06,25.11c-.07,30.76,12.37,63.81,26.34,91.02l23.73,7.76c23.37,7.64,45.23,18.03,64.16,34.08l20.26-11.66c22.17-10.55,35.5,6.02,37.73,6.08.78.02,1.56-.61,2.29-1.17l9.7-7.51c-25.2-21.03-62.43-33.26-94.01-39.65-5.45-1.1-8.35-3.45-10.22-8.71-6.06-17.03-8.32-34.55-6.43-52.85,4.38-42.38,30-79.55,74.67-80.51,40.41-.86,76.4,26.76,73.56,69.76-1.21,18.29-5.66,35.79-12.53,52.81l-4.5,11.17-11.37-4.27,7.49-22.3c4.04-12.02,7.1-24.03,8.35-36.67,1.38-13.89-2.57-26.36-11.65-36.83-16.61-19.17-43.73-26.22-67.49-16.74-5.4,2.16-10.77,4.6-14.77,8.62l-11.25,11.33c-21.25,27.76-22.81,66.4-9.67,98.93,43.67,7.87,86.39,23.64,122.53,50.55,24.78-15.06,49.03-6.88,75.52,3.07-3.48-8.12-23.71-22.85-32.14-26.77l-39.85-18.56c-2.55-1.19-5.67-2.91-6.88-5.5-1.47-3.13.01-7.02,1.5-10.16,11.72-24.79,17.88-51.03,17.93-78.39.03-16.81-7.04-30.65-20.46-40.82-32.97-24.98-85.88-30.22-118.31-3.29-8.74,7.26-11.08,16.03-14.52,15.25-1.5-.34-2.69-1.21-2.93-3-1.08-8.15-.69-16.02-.27-24.18.62-11.98,1.48-23.5,5.05-34.92,8.22-26.29,27.35-45.38,55.5-47.34,27.15-1.89,57.64,9.27,73.93,31.63,21.11,28.97,32.23,63.98,33.72,99.91,1.08,26.02-3.27,51.08-12.06,75.39l-7.05,17.34c-.73,1.8,2.94,4.05,4.48,4.64l21.47,8.28c15.27,5.89,29.46,13.43,41.57,24.62,15.34,14.18,27.61,30.64,37.02,49.41,11.62,23.17,16.34,48.92,15.27,74.69-.14,3.5-1.6,7.33-3.53,9.69-2.36,2.88-5.92,2.3-8.74,1.14-2.75-1.14-4.54-3.97-4.59-7.47l-.42-27.83c-1.6-20.98-7.43-43.67-21.49-59.54-17.71-19.99-51.28-31.16-77.04-19.39,21.97,19.81,34.3,45.81,36.85,74.61,1.71,19.33-1.83,36.89-14.15,51.99l-11.75-5.81c5.44-10.53,8.78-21.07,8.76-32.52l-.02-10.4c-1.45-21.65-8.2-44.91-26.61-57.33-3.17,37.3-3.9,68.4-25.61,99-.67.94-.42,2.12.03,2.8.39.59,1.06.5,1.98.93,30.41,14.23,61.49,25.62,93.94,34.42,11.55,3.13,22.7,4.01,34.63,3.51,7.4-.31,14.34.9,21.05,4.45,1.89-2.16,3.73-3.51,5.88-3.67,2.41-.18,4.87.53,6.22,2.76,7.05,11.58,9.76,31.99,10.1,46.11l.38,15.95c12.05,3.57,21.12,10.99,27.35,21.76,16.7,28.87,13.54,63.7-4.57,91.34-.91,1.38-1.75,2.36-2.06,3.76ZM681.44,349.84c3.08,2.86,5.18,5.75,9.11,7.76-8.28-46.62-30.88-89.47-82.18-88.86-13.65.16-26.53,3.45-36.87,12.6-17.77,15.73-23.09,40.41-21.25,64.03,19.53-15.52,41.93-22.33,65.89-21.83s47.11,9.42,65.31,26.31ZM668.03,560.46c6.45-3.29,8.23-11.11,5.36-17.06s-9.56-8.73-16-6.33c-7.16,2.67-10.54,10.61-7.57,17.4s10.91,9.72,18.21,5.99ZM777.75,731.3l1.34-13.64-20.65-4.28c-36.58-10.35-71.62-23.61-106.23-39.79l-13.2,12.9c2.29.54,4.02-1.84,5.61-1.05l30.3,14.97c30.16,14.9,69.69,24.65,102.85,30.89ZM807.98,732.41c1.31-3.4,1.24-7.81-.91-10.71-2.12-2.86-6.37-4.51-9.86-4.23-5.82.46-8.88,5.96-8.32,11.32.53,5.06,3.37,9.07,7.96,9.92,4.48.83,9.16-1.16,11.13-6.3Z"/>
          <path class="cls-2" d="M860.22,544.17c-13.73,9.3-31.82,23.33-45.51,14.05-6.25-4.23-4.29-16.51-12.56-22.52l-44.14-32.1c-14.29-10.39-30.55-16.3-47.08-23.27l5.71-23.53,8.5-44.31.24-8.57c.15-5.38.56-10.35.12-15.61l-1.53-18.28c-5.51-34.67-18.52-68.14-40.62-95.48-9.94-12.29-23.12-19.81-37.53-25.02-13.74-4.98-27.56-6.28-42.12-6.3-15.99-.03-30.5,4.84-42.59,15.31-12.75,11.05-21.27,25.35-26.1,41.63l-5.33,25.07c-2.68,19.6-4.4,38.59-4.99,58.38-.42,14.1-.84,27.24.23,41.38,1.33,17.59,4.65,34.44,9.44,51.36.52,1.85-.13,3.66-1.08,4.73-1.01,1.14-2.38,1.82-4.42,1.68-2.61-.18-5.11-1.69-5.92-4.41-6.28-21.14-9.93-42.47-11.61-64.5l-.5-19.99.53-23.19c1.56-20.09,3.09-39.78,6.58-59.58l6.1-22.76c7.22-20.64,20.75-38.06,39.63-49.02,15.32-8.89,31.86-11.61,49.33-11.84,31.92-.41,60.87,12.19,82.14,36,13.51,15.12,22.46,32.98,28.3,52.69,7.34,24.76,11.2,49.76,13.12,75.54l.05,28.35c-1.01,13.52-3.87,26.28-7.29,39.31l-3.26,12.4c-.67,2.54-1.49,4.88-.67,7.52,26.1,10.47,50.14,24.33,72.49,41.16l12.93,8.9c5.24,3.6,7.74,8.15,8.44,14.24.62,5.34,5.4,7.98,10.38,6.79,6.71-1.61,12.13-5.56,17.73-9.52,5.77-4.07,11.7-7.81,16.18-13.42,2.21-2.76,3.7-6.06,7.08-7.64,2.11-.99,5.01-1.04,6.49.55s1.75,3.98,1.51,6.99l20.55-3.04c1.72-.25,2.98-1.39,3.48-2.95,3.71-11.61,14.69-18.02,22.09-13.27,3.39,2.17,4.68,5.85,2.66,9.57-1.11,2.05-3.12-2.96-5.51-3.16-5.86-.49-8.11,14.18-9.96,20.15l-4.22,13.59c-3.87,12.44-17.03,23.22-30.33,22.83-8.23-.24-13.89-5.76-16.02-13.59l-1.14-13.28ZM890.87,553.66c5.15-5.55,9.56-14.35,7.72-20.8-2.09-.53-4.51-.3-6.53.49-6.62,2.61-13.08,3.89-20.4,4.51-.33,6.23,1.45,12.62,5.62,16.85,4.18,4.25,9.79,3.04,13.59-1.05Z"/>
          <path class="cls-2" d="M273.59,560.5l-11.61,7.21c-13.98-18.18-22.95-38-30.14-59.3l-33.56-99.47c-4.91-14.55-8.38-28.77-9.86-43.91-.35-3.58,2.5-6.65,5.1-7.14,3.08-.58,6.86.94,7.75,4.4l6.69,26.13,6.31-28.02c2.91-12.93,6.36-25.2,11.79-37.27s12.75-21.89,21.53-31.41l7.51-8.14c5.08-5.5,8.12-11.88,9.59-19.34,5.18-26.38,11.14-47.18,29.38-67.89,3.43-3.9,6.59-7.12,10.59-10.54,11.19-9.54,9.04-13.01,7.2-28.45-2.19-18.35,11.23-38.06,26.93-48.03,8.48-5.39,17.28-9.68,25.06-16.19l6.98-6.98c3.79-3.79,5.01-8.56,5.17-13.74l.44-14.38c4.73-17.7,20.82-29.62,38.8-31.08l32.62-.7c23.03-.49,41.74-2.9,60.91-16.43,10.89-7.69,16.62-18.85,12.96-31.97l10.31-5.11c4.56,3.59,5.88,9.35,5.31,15.15-2.25,22.66-24.76,40.3-45.6,46.98-11.66,3.73-23.39,5.74-35.67,5.5l-30.05-.58c-19.46-.38-37.17,11.1-36.52,31.36.24,7.41-1.5,13.85-6.36,19.59-17.33,20.46-37.46,25.54-49.2,44.07-5.25,8.28-8.16,17.53-7.32,27.19.93,10.6,1.53,20.17-6.55,28.49l-18.41,18.93c-9.93,11.61-16.22,25.37-19.81,40.17l-4.1,16.89c-2.61,10.76-8.26,19.21-15.28,27.63l-18.42,22.09c-15.05,21.42-21.71,49.68-27.66,75.11-1.13,4.83-1.64,9.3-4.71,13.59l20.65,52.5c8.79,22.35,15.56,44.5,22.16,67.54,4.56,15.93,19.99,30.41,19.77,35.11-.01.28.1.57.31.78.88-.09,2.09.16,2.78,1.11l7.08,9.76-12.75,9.55-8.64-11.92c4.44-2.55,8.82-4.49,11.35-8.16l-.82-.61Z"/>
          <path class="cls-2" d="M504.06,304.66c-5.57,29.55-10.09,57.85-10.82,87.56-.81,33.22,6.82,65.25,19.02,95.93l48.33,13.32c10.03,2.76,19.28,6.8,27.72,12.73,2.15,2.05,4.94,4.79,3.27,7.87-1.74,3.2-6.92,3.46-10.35,1.53-23.86-13.41-49.11-23.11-75.93-29.16-3.09-.7-4.98-4.42-6.26-6.91-6.64-12.98-12.25-25.9-15.96-40.06-2.1-8.02-4.53-15.85-4.51-24.23l.1-56.39,4.21-45.53c3.16-34.09,16.04-65.9,39.86-90.27,8.79-8.99,18.33-15.8,30.46-19.5l27.96-6.3c29.87-4.45,59.57-3.02,88.57,5.66,38.35,11.48,67.75,52.19,80.23,89.43,6.57,19.6,10.05,38.96,11.49,59.46,1.34,19.15-.3,37.46-2.53,56.58-2.42,20.74-6.43,40.53-12.94,60.55l-14.35-1.44c9.22-31.6,15.09-63.07,17.12-95.69l.03-23.52c-1.98-29.76-10.68-58.26-26.27-83.62-18.63-30.31-41.78-49.58-77.53-55.91-22.48-3.98-45.24-3.11-67.67,1.92-17.64,3.96-32.29,14.05-44.38,27.2-15.06,16.4-24.63,36.35-28.86,58.77Z"/>
          <path class="cls-2" d="M974.72-17.82c-.55,18.52-4.15,36.48-12.32,52.71-3.83,7.61-10.85,12.36-18.52,16.21,1.78,10.03,3.72,19.78,2.25,29.83-2.94,20.12-15.44,33.22-36.69,34.79,4.23,12.83,11.67,37.46,3.97,45.58-5.87,6.2-16.99,3.39-25.88,3.99,8.88,16.02,13.67,33.26,4.83,48.87-5.52,9.75-16.28,13.25-18.11,8.67-1.04-2.59.23-5.51,2.15-7.56,6.81-7.29,10.19-17.64,7.03-27.16-1.65-4.96-5.56-7.94-10.49-8.4-7.2-.68-13.51-3.14-19.55-6.96-14.98-9.5-28.51-20.32-40.75-33.15-3.43-3.59-6.71-6.87-8.95-11.44,16.77-2.06,30.99-9.95,42.06-22.21,9.05-10.02,16.41-20.95,21.89-33.44L898.95,1.22c3.64-8.3,1.29-16.65-4.56-22.89l-12.04-12.85-3.35-5.26,5.86-2.91c1.11-.55,3.12-1.23,4.32-.33,6.86,5.17,12.9,11.03,17.78,18.07,11.05,15.96,7.32,36.01.38,53.98-7.79,20.18-16.75,39.31-27.41,58.15-10.93,19.29-26.61,34.75-46.57,44.94l15.45,15.84,10.26,10.63c8.62,2.93,21.55-5.42,31.49-10.86,4.35-2.38,9.44-5.8,10.4-11.2,1.22-6.92-.58-14.62-3.78-20.56l-7.95-14.76c-.61-1.14-1.79-3.71-1.28-5.03,8.93-6.36,13.86-17.41,14.65-28.51,7.58-2.63,14.92-5.46,20.89-10.95,1.28-1.17,3.27-2.9,4.03-4.33,2.86-5.4.05-11.3-4.44-14.69-1.92-1.45-3.26-3.98-3.56-6.33-1.37-10.8,1.29-28.9,8.69-36.06l9.91-9.6c6.54-6.34,16.1-7.73,24.95-8.52,4.68-1,9.16.06,11.66,4.99ZM952.54,30.71c5.5-4.7,6.95-12.12,7.89-18.75.85-5.99-1.34-11.19-6.03-13.99-4.53-2.7-10.37-2.65-15.11.83-8.34,6.13-11.6,19.02-6.54,28.19,3.99,7.23,13.41,9.17,19.79,3.72ZM921.37,94.33c8.24,1.65,15.87-4.14,15.9-12.14.44-5.82-2.3-11.22-8.04-12.76-7.53,1.75-13.16,8.21-14.55,15.81-.79,4.31,2.17,8.18,6.69,9.08Z"/>
          <path class="cls-2" d="M876.39,324.41l21.7-1.09,34.43.12c3.02.01,4.68,4.63,5.41,7.07l-26.52-.04-19.47.36-14.09.58c-1.59.07-3.65.57-3.71,2.43-.4,10.94-.93,25.23-9,24.06-2.77-.4-5.23-2.86-4.96-6.42,3.29-43.57,3.72-74.39-16.36-114.46l-18.23-36.37-9.63-20.12c-1.71-3.57-3.5-8.38-1.16-12.1s8.9-2.99,10.98.79l22.46,40.67c9.39,17,16.64,34.08,23.3,53.09,2.77-7.41,5.55-12.87,11.7-16.65,11.52-7.1,5.46-14,7.79-17.87,2.16-3.59,11.66-2.57,17.36-12.35l8.59-14.74c4.27-7.33,1.99-15.44-5.46-19.75-1.43-.83-4.06-4.66-1.77-5.43l17.29-5.8c14.19-4.76,8.9-23.15,15.16-36.59,3.04-6.54,9.21-11.2,14.84-15.35,10.11-7.46-5.56-13.56-4.3-36.42.54-9.86,2.47-19.13,5.91-28.3l7.42-19.78,8.08-24.56,3.79-13.18c2.26-7.87,4.44-15.88,11.69-20.52,1.77-1.13,4.98-.08,6.55.86,1.35.81,3.34,3.39,2.35,5.7-11.28,26.33-20.81,52.87-26.16,81.09-4.02,21.22.14,42.02,11.52,59.96,3.34,5.27,6.55,11.35,3.45,14.85-5.42,6.1-18.18-6.2-20.27-3.17-1.55,2.25,6.53,8.87,6.4,16.39-.05,2.6-4.32,3.48-6.31,3.53l-16.61.41,8.7,15.3c1.42,2.5,1.89,5.82.7,8.41-2.53,5.53-8.85,6.17-15.52,4.76-4.16-.88-8.19-2.37-12.76-.53l10.48,12.19c2.54,2.95,3.76,5.8,3.78,9.8.03,4.71-2.81,8.44-7.83,8.85-8.82.72-16.93-4.49-18.14-2.27-.95,1.76,5.63,9.43,3.72,17.43-2.11,8.85-14.56,7.94-24.73,5.37-.43,4.45,4.67,9.01,3.53,13.9s-6.2,7.99-10.92,9.24l-9.93,2.62c-3.69.98-7.43,4.45-6.85,8.65,1.78,12.85,2.85,25.14,2.21,38.44l21.65-2.14,32.4-2.13c1.1,2.05,1.52,4.43,1.06,6.91l-12.35.66-24.22.79-18.57.81c-.87,3.98-.57,7.24-.56,12Z"/>
          <path class="cls-2" d="M855.42,515.25c1.65,1.23,2.22,4.92.79,6.4-1.81,1.87-5.54,2.16-7.93.56-25.27-16.9-51.94-30.92-80.45-41.57-5.39-2.02-6.68-6.83-5.4-12.14,2.39-9.93,5.27-19.36,9.57-28.95,17.64-39.37,27.21-81.57,24.44-124.92-2.56-40.17-18.64-82.06-49.42-108.64-27.03-23.34-56.65-26.16-90.83-28.51l-40.13-5.64c-7.62-1.07-14.15-3-13.3-9.88s8.49-6.3,16.87-5.51l79.84,7.53c27.19,3.62,49.48,17.84,66.94,38.21,14.28,16.66,25.26,34.96,33.24,55.58,7.72,19.96,12.73,40.46,14.21,61.88,1.54,22.31-.12,48.25-8.41,68.66l-13.98,34.42-19.73,50.06c9.91,6.16,20.36,10.77,31.07,15.59l25.23,11.35c9.52,4.79,18.78,9.14,27.36,15.53Z"/>
          <path class="cls-2" d="M1075.96,695.64l-14.98,3.99-11.97-89.58,49.52,5.5,16.8.47c5.9,1.16,11.63.28,17.59.16,17.21-.34,33.92-2.02,50.49-7.27,13.46-4.26,26.2-9.96,36.91-19.17l14.91-14.82c20.27-24.62,32.8-54.54,37.28-86.25,1.12-7.95.82-15.98-.05-23.75-1.76-15.51-10.16-28.11-21.13-38.63l-13.12-12.57c-7.34-7.03-3.05-30.43,5.9-29.12,4.29.62,6.47,5.85,5.26,9.64-2.38,7.46.66,13.12,6.44,17.46,25.69,19.3,37.13,49.13,31.04,81.08-4.91,25.72-14.82,49.77-28.12,72.21-9.19,15.49-20.62,28.31-34.45,39.82l3.21,39.51c-3.1.62-5.96.49-8.88.2-1.18-1.94-.79-3.98-1.01-6.09l-3.02-28.53-34.72,13.47c-37.77,11.13-75.32,9.85-114.39,2.6l10.49,69.68Z"/>
          <path class="cls-2" d="M-35.24,346.89c13.84-37.95,36.36-73.12,58.45-106.66,19.76-30,27.37-62.56,33-97.85,8.08-50.65,27.29-83.32,61.24-120.22l8.69-9.44c8.32-9.04,15.91-18.36,20.96-29.63,4.1-9.17,6.61-18.94,3.85-28.65l-3.41-12.04c-.56-1.96,2.04-3.61,3.49-4.05,8.29-2.52,17.22,21.66,9.39,45.62-3.67,11.24-8.99,21.73-16.81,30.78l-21.52,22.07c-28.25,28.98-46.3,69.03-54.09,108.69l-6.8,41.7c-2.91,17.86-10.61,33.89-19.76,49.44l-28.63,48.58c-12.98,22.02-24.73,43.94-35.61,67.6l-12.44-5.92Z"/>
          <path class="cls-2" d="M-51.1,342.52c-7.28-.48-3.06-11.86.06-20.02,7.17-18.74,15.86-36.11,25.96-53.42L-3.26,231.65c16.47-28.24,26.08-58.85,31.15-91.16,2.99-19.04,6.34-37.07,11.57-55.57,6.22-22.02,17.88-41.77,34.73-57l21.34-19.29c13.99-12.65,30.07-32.9,28.08-51.95-.89-8.54-6.48-15.2-3.82-18.41,1.69-2.03,8.24-1.94,10.63,2.33,6.69,11.96,7.08,25.82,1.76,38.54-4.71,11.29-11.56,20.95-20.12,29.71l-28.44,29.1c-29.53,33.43-34.29,64.91-40.4,107.69-2.67,18.67-6.93,36.17-14.23,53.61-7.17,17.14-15.37,33.05-25.24,48.76l-21.68,34.52c-11.49,18.29-21.37,36.74-28.28,57.12-.72,2.12-3.43,2.96-4.9,2.86Z"/>
          <path class="cls-2" d="M280.83,317.08c-14.23,9.54-21.69,27.07-28.85,43.25l-13.46-3.01c8.13-25.18,19.89-45.58,43.13-58.11,17.58-9.48,10.69-21.43,11.4-30.1l1.05-12.81c1-12.22,5.96-23.45,14.1-32.56l13.25-12.47c6.1-5.74,10.41-12.25,12.43-20.4l4.96-20.03c5.04-20.33,16.83-37.63,32.56-51.48l21.04-16.27c6.82-5.27,10.81-12.22,10.34-21.08-.88-16.65,8.71-31.52,26.75-31.49l41.97.08c8.56.02,19.68.38,21.26,5.68.56,1.87.04,4.6-1.93,5.64-2.23,1.17-5.19,2.35-7.95,2.1-16.94-1.57-33.46-2.83-50.38-2.01-5.57.27-10.01,2.96-12.2,8.21-5.9,14.17-.02,28.61-17.43,40.98-11.94,8.49-23.61,17.04-33.27,28.08-8.48,9.69-15.09,20.31-17.7,32.94l-5.48,26.57c-4.63,22.43-35.79,25.67-39.33,65.82l-.19,23.17c-.06,7.22-3.4,13.21-8.86,17.75l-17.21,11.54Z"/>
          <path class="cls-2" d="M369.84,723.4c6.25-.86,11.49.86,17.32,2.08l24.01,5.04c16.5,3.46,32.5,5.71,49.34,6.66,15.02.85,29.29-1.65,43.69-6.66,30.54-10.61,58.23-26.89,82.68-48.06l21.81-21.81c8.18-8.18,13.92-17.79,19.91-27.68,8.11-13.4,13.38-27.72,17.05-42.75.49-2.01,2.99-3.25,4.38-3.27,1.56-.02,4.21,1.53,4.6,3.84,3.02,17.71-8.38,44.19-19.47,59.83-30.77,43.42-74.53,75.78-124.33,94.37-15.92,5.95-31.7,9.77-48.63,9.11-15.75-.62-30.79-2.39-46.15-5.84-14.02-3.15-46.57-9.75-50.57-19.61-.92-2.27,2.41-4.96,4.35-5.23Z"/>
          <path class="cls-2" d="M355.73,199.14c4.27-25.62,17.73-47.34,37.35-63.53,7.84-6.47,15.96-11.36,24.52-16.79,6.03-3.82,11.42-8.54,14.51-15.06,1.84-3.89,2.38-8.19,3.19-12.31,2.12-10.73,9.57-18.71,20.52-20.07,18.63-2.31,37.81,10.83,50.05-4.47,2.83-3.54,5.91-6.5,10.56-7.45,15.7-3.21,29.8-8.1,41.17-19.6l11.6-11.74c9.07-9.17,25.82-.41,39.26-5.29,9.31-3.38,14.69-12.56,15.98-22.08,2.56-18.87-8.72-40.36-20.43-55.34-1.15-1.48-1.07-3.04-.51-4.24,1.69-3.62,8.1-1.96,13.31,3.95,17.62,20.01,27.47,52.43,11.47,75.02-6.49,9.17-16.31,15.2-27.66,15.86l-16.34-.85c-4.12-.21-6.85,1.26-9.34,4.17-11.52,13.47-24.25,26.8-42.94,28.48l-14.82.2c-7.55,14.07-22.55,20.26-38.18,17.13l-16.32-2.51c-6.65-1.02-12.59,2.67-14.13,9.52l-3.28,14.57c-1.73,7.66-6.38,14.48-13.22,18.72-28.49,17.66-52.68,35.13-63.27,68.36-1.96,6.17-4.78,11.87-9.73,10.22-1.69-.57-2.94-2.02-3.32-4.9Z"/>
          <path class="cls-2" d="M464.09,158.18c-2.19-.55-3.01-2.56-3.01-4.02.03-8.1,36.87-14.88,44-49.17,1.33-6.41,3.8-12.3,6.94-17.92,4.41-7.88,12.73-10.81,21.62-8.96,15.8,3.3,32.42,18.85,57.61,19.54,17.27.47,33.49-6.92,45.98-18.67,7.07-6.65,12.03-14.8,16-23.71l16.81-37.73c8.95-20.1,7.16-42.52-5.04-60.66l-5.95-8.1c-1.45-1.98-2.41-5.04-1.08-7.13,1.54-2.41,4.1-2.51,6.68-2.18,2.16.27,3.54,1.88,5.28,3.91,13,15.18,21.07,34.02,19.91,54.19-.6,10.39-2.96,20.46-8,29.57-5.47,9.9-9.21,19.44-12.75,30.14-4.93,14.9-14.25,27.62-26.11,37.5-18.85,15.72-43.28,20.19-66.61,13.05-20.18-6.17-34.35-16.23-43.58-18.67-4.98-1.31-9.94.69-11.45,5.71l-4.11,13.62c-5.55,24.64-22.2,39.63-45.1,49.26-2.33.98-5.37,1.08-8.04.41Z"/>
          <path class="cls-2" d="M25.76-48.12l-.44,72.97-.79,36.78c-.31,14.38-2.37,27.92-4.37,42.29-2.65,19.12-6.93,37.16-10.98,56-6.78,31.59-12.85,55.34-31.74,82.06-9.66,13.66-19.02,26.71-27.06,41.46-9.59,17.62-16.69,35.67-24.67,54.34-3.65-.9-6.91-2.61-10.31-5.12,6.3-16.76,12.91-32.73,20.47-48.96,6.38-13.7,14-25.89,22.15-38.53,7.35-11.41,13.75-22.57,19.95-34.63,10.23-19.91,16.61-40.33,21.3-62.23,6.96-32.47,12.54-64.41,14.24-97.57l.58-29.95V-9.4s-.57-38.83-.57-38.83l12.24.11Z"/>
          <path class="cls-2" d="M.69-47.77l.4,15.64L1.8-5.61l.06,56.91c.01,10.55-1.27,20.31-2.85,30.83l-10.25,68.16c-5.32,35.42-18.72,55.42-39.33,83.15-10.52,14.15-19.82,28.44-27.01,44.58-8.24,18.48-14.08,37.01-19.99,56.6-4.03-.53-8.41-1.77-11.33-4.13-1.26-1.57.55-4.23.97-5.56l8.96-28.53c6.46-20.59,15.72-39.9,27.89-57.7l19.81-26.21c9.29-12.29,16.06-25.69,20.46-40.41,8.91-29.78,14.27-61.4,17.5-92.31,1.46-13.94,3.47-26.84,3.5-40.82l.17-75.26c0-4.16-.52-8.09-.85-12.05l11.18.59Z"/>
          <path class="cls-2" d="M1042.43,578.97c-.58,4.11-3.39,6.89-6.16,8.02-3.5,1.43-7.19.61-10.41-1.7-4.02-2.87-6.29-8.16-7.66-13.07l-5.46-19.53c-1.47-5.25-5.87-11.27-10.18-9.84-5.28,1.75-4.67,11.95-1.43,19.94,4.74,11.73,12.78,30.6,2.77,36.86-4.04,2.52-8.87,3.38-12.74.38l-7.97-8.76-6.83,7.59c-7.13,7.92-18.55,8.31-25.85.39-12.48-13.56-5.81-32.37.55-48.94,3.49-9.09,7.77-22.66.23-25.51-2.84-1.07-6.22.18-8.36,2.8-7.76,9.54-10.21,22.1-10.77,34.46l-.53,11.75c-.28,6.29-2.36,12.13-7.76,15.7-11.13,7.37-29.86,2.71-27.1-4.17,2.37-5.92,12.03-1.11,16.94-3.98,13.01-7.63.42-39.7,24.36-62.46,6.59-6.27,15.3-6.54,21.58-.38,1.31,1.29,3.99.38,5.42.77,7.64,2.12,22.67,7.64,22.64,11.23-.02,2.68-4.91,5.84-9.76,3.86l-11.79-4.81c-.27,13.81-2.9,26.68-8.4,39.18-2.37,5.38-4.5,10.65-4.19,16.63.26,5.03,3.41,10.17,8.55,10.74,6.58.74,10.52-9.05,16.27-12.95,6.01-4.08,12.13.46,15.7,7.63.78,1.56,1.86,2.72,3.37,2.52,1.4-.19,2.86-1.39,2.87-3.22.02-6.4-8.38-15.33-11.59-32.07-1.42-7.4.13-15.89,5.5-21.37,6.38-6.51,16.87-4.92,22.5,1.96,10.7,13.07,7.7,29.87,12.43,37.29.78,1.22,2.21,1.96,3.23,1.65,4.62-1.43-.23-11.79,2.84-22.54,2.56-8.99,12-16.26,19.17-11.61,1.07.7,2.02,3.92.6,4.83-5.98,3.82-9.52,9.02-10.53,16.21l-2.06,14.53Z"/>
          <path class="cls-2" d="M772.25,342.71c.02-12.2-2.33-23.13-4.96-34.74-5.3-23.4-14.92-45.16-28.59-64.73l-10.91-12.65c-19.27-22.35-61.34-33.07-90.51-35.59-8.22-.71-15.71-.54-23.68-.22l-16.6.67-14.4.61c-5.13.22-10.85.47-14.62-3.53-1.64-1.73-1.28-4.87-.1-6.99,3.98-7.14,21.97-6.33,32.66-5.5l11.83.92c31.61,4.71,62.62,10.7,93.33,19.68,11,3.22,19.53,10.66,27.51,18.34,41.12,39.59,53.25,92.34,48.85,148.34-1.81,23.07-5.64,45.39-11.75,67.32-.6,2.17-2.87,3.61-4.2,3.43-2.31-.31-4.19-1.83-3.66-4.61l4.78-24.91c2.51-13.07,4.95-25.68,4.97-38.94l.05-26.91Z"/>
          <path class="cls-2" d="M380.61,674.18l27.5,4.08c16.56,2.46,31.96-1.37,46.33-9.96,14.24-8.51,26.41-19.32,37.4-31.84,8.41-9.57,22.7-27.82,15.63-37.42-7.99-10.85-35.03-19.6-49.57-22.91l-38.08-8.68-34.69-7.31c-3.95-.83-7.88-4.01-8.16-8.31-.21-3.25,4.24-6.7,7.94-6.09,34.98,5.77,107.99,21.24,130.06,46.58,5.47,6.28,7.32,14.34,5.11,22.65-7.22,27.21-28.42,48.22-51.46,63.69-11.15,7.49-23.61,12.45-37.07,13.38-17.96,1.24-35.01-1.18-52.3-5.21-.3-4.46.44-8.01,1.35-12.65Z"/>
          <path class="cls-2" d="M205.08-47.77c-6.41,9.1-10.03,18.98-13.55,29.29L185.36-.38c-3.93,11.52-11.27,21.28-19.9,29.88l-18.72,18.64c-6.5,6.47-12.8,12.45-18.5,19.8-11.73,15.12-19.86,32.16-24.62,50.9l-20.22,79.55c-2.64,10.38-7.43,19.24-11.39,29.09l-19.66,48.92-11.68-3.27c6.93-18.99,16.13-35.67,25.45-53.06,4.65-8.67,7.25-18.04,8.75-27.85,5.34-34.7,11.5-80.3,27.68-110.29,4.73-8.78,9.9-16.56,16.94-23.71l35.86-36.44c7-7.11,12-14.95,15.74-24.14l12.36-30.37c2.24-5.51,4.48-10.37,7.24-15.63l14.39.58Z"/>
          <path class="cls-2" d="M1070.65,771.3c16.1,30.52,37.27,48.17,68.09,63.13l-7.73,12.64c-16.64-9.17-31.71-19.4-45.62-31.94-10.95-9.87-19.2-20.99-26.13-33.98-22.97-43.11-32.16-94.67-37.6-142.99l-4.38-31.65c-.34-2.44.72-6.15,3.3-5.97l7.71.53c1.68.12,2.97,1.27,3.44,2.81,3.21,10.63,5.93,21.09,7.5,32.17l3.86,27.35,7.8,49.83c4.34,20.36,10.11,39.77,19.76,58.07Z"/>
          <path class="cls-2" d="M1271.92,34.71c-5.88-20.88-26.64-28.95-48.18-28.47-19.55.44-38.42,7.3-52.99,20.33-33,29.5-12.15,88.75,3.64,125.56-2.59,2.35-4.38,4.08-8.06,6.23-12.94-27.76-21.61-56.65-25.07-87.16-2.27-20.06,5.11-40.5,21.22-52.78,22.7-17.3,51.35-24.35,79.51-21.61,24.7,2.4,52.36,15.33,63.14,38.16,2.98,6.31,4.08,13.56,1.47,19.89l-11.14-.93c-7.01-.59-13.63-1.06-20.67.11l-2.87-19.32Z"/>
          <path class="cls-2" d="M1200.05,34.83c-14.19,7-23.25,24.83-24.97,40.43-2.39,21.79,3.81,42.24,12.57,62.97l25.97-6.34c6.78-1.66,14.12.84,16.86,7.7-3.37,4.03-8.07,4.88-12.91,4.96l-12.94.22-15.04,3.49c-4.88,1.13-8.26-1.88-10.2-6.23-9.39-21.14-16.32-44.99-14.49-68.21,1.09-13.9,5.19-27.3,14.25-37.83,8.69-10.11,19.46-16.4,32.37-19.21,10.45-2.27,20.45-2.35,30.74.98,14.95,4.83,25.48,19.01,23.85,35.06-1.07,10.51-6.95,19.6-14.26,26.93l-27.58,27.65-7.91,7c-5.33,4.72-10.96,8.79-18.27,9.7-3.56.45-7.48-2.33-6.76-6.06.52-2.69,3.55-3.87,5.84-4.97,15.81-7.56,29.93-17.74,41.4-30.92,8.53-9.81,11.32-22.23,8.27-34.72-4.7-19.28-31-20.37-46.79-12.58Z"/>
          <path class="cls-2" d="M444.67,434.37l16.3,61.42c.93,3.5-2.06,6.96-4.87,7.11-2.88.15-6.09-1.83-7.13-5.34l-17.85-60.59c-3.45-11.71-7.82-22.57-7.82-34.87v-37.07c2.79-37.92,9.84-75.02,21.82-111.16,6.14-18.52,14.34-35.49,22.63-52.73,1.66-3.46,7.14-4.12,9.38-2.02,2.93,2.74,3.26,6.92,1.51,10.49-9.38,19.21-18.49,37.94-25.76,58.22-8.9,24.84-14,49.99-16.46,76.19l-.6,15.15c-.26,6.69-.21,13.38.02,20.07l.42,12.23c.51,14.78,4.59,28.54,8.39,42.89Z"/>
          <path class="cls-2" d="M791.86,100.05l22.85-6.34c12.24-3.4,28.5-7.9,26.62-22.58l-1.49-11.61c-.67-5.19,11.37-2.59,16.96-6.38,10.82-7.33,10.44-22.76,1.03-31.2-.99-.89-1.63-2.26-1.51-3.25.58-4.8,20.56-3.32,21.08-22.31.28-10.07-6.1-17.72-16.23-19.06-1.83-3.08-3.44-6.12-4.33-9.63,4.91-3.87,11.47-4.63,16.54-1.13,9.06,6.24,14.7,17.36,18.18,27.91,1.56,4.72,1.77,9.03-.41,13.67l-21.43,45.43c-9.51,20.17-17.94,36.88-38.27,48.34-10.5,5.92-21.51,10.3-33.5,12.36l-37.87,6.52c-6.12,1.05-15.19,1.09-16.86-2.75-.51-1.18-.49-4.6,1.27-5.08l47.36-12.9Z"/>
          <path class="cls-2" d="M645.75,445.2c5.95-19.15,11.83-40.77-3.36-55.03-6.99-6.56-15.7-9.29-25.18-10.06-13.06-1.06-25.82,3.89-34.23,13.93-19.82,23.68-12.06,57.28-1,84.56l-12.14.04c-4.39-12.63-7.76-25.46-9.77-38.9-3.58-23.96,4.25-50.96,24.92-64.73,14.4-9.6,32.79-11.6,49.21-6.39,14.34,4.55,24.3,15.86,28.7,29.81,7.79,24.7-3.4,56.05-13.85,79.59-1.32,2.98-5.56,3.42-7.74,2.39-2.77-1.32-5.1-4.54-4.05-7.92l8.48-27.3Z"/>
          <path class="cls-2" d="M344.73,243.97c-18.99,25.4-13.71,48.18-20.75,50.52-2.22.74-5.63.19-6.61-2.36-2.19-5.72-.96-11.63-.54-17.63,1.98-28.12,19.11-52.43,46.85-57.57,6.8-1.26,11.03-5.77,12.99-12.19,9.78-31.98,33.55-50.59,59.35-69.84,5.57-4.16,11.06-7.86,15.45-13.4l15.75-25.48c2.34-3.78,7.44-6.21,11.37-4.14,4.05,2.13,2.5,6.66.53,9.69l-15.06,23.17c-7.7,11.85-17.7,20.67-29.86,27.83-26.56,15.63-39.19,36.94-50.76,64.55-2.97,7.1-13.08,10.56-20.93,13.33-7.45,2.63-13.04,7.21-17.77,13.53Z"/>
          <path class="cls-2" d="M430.26,639.7c-4.77,1.09-9.4.93-13.52.14l-21.25-4.06.61-43.59.4-19.67c17.49,2.42,34.22,6.01,51.03,10.89l29.21,10.57c2.25.81,3.11,3.47,1.9,6.05-9.14,19.51-26.81,34.73-48.38,39.68ZM446.93,617.68l8.73-8.81c1.09-1.1,1.03-3.48.4-4.61-.53-.96-2.17-2.16-3.82-2.14l-19.5.13c-9.57.06-23.66,5.33-22.24,16.18,1.47,11.27,22.89,10.46,36.43-.75Z"/>
          <path class="cls-2" d="M1353.14,215.18c-20.89,5.64-43.47-6.8-51-26.69-4.9-12.94-.29-26.52,9.37-35.86,11.75-11.37,25.36-12.98,41.56-9.33l.08,71.89Z"/>
          <path class="cls-2" d="M833.81,690.67c-2.05,1.8-5.42,2.05-8.27,1.59-33.58-5.39-66.48-11.54-99.86-20.14l6.87-11.61c8.19-13.83,9.2-30.29,5.73-46.04-1.69-7.67-3.55-14.95-3.9-22.78-.14-3.01.9-5.17,3.48-6.47,2.33-1.17,4.62.41,6.97,2.8,11.65,23.88,17.09,47.76,7.15,73.8l76.19,16.04c3.17.67,5.57,1.67,6.83,4.04,1.41,2.65,1.57,6.35-1.18,8.77Z"/>
          <path class="cls-2" d="M614.84,479.14c-5.81,1.7-11.17-.44-14.54-5.04-13.29-18.11-21.82-49.62-9.13-68.69,5.1-7.67,13.43-12.39,22.59-13.19,6.51-.57,13.18,1.78,16.93,7.36,13.07,19.42,9.45,48.23-2.54,68.46-3.01,5.08-7.43,9.39-13.31,11.1ZM613.08,466.55c5.82-5.02,9.18-10.6,11.23-17.18,3.46-9.02,4.85-18.87,2.83-28.26-1.51-7-7.27-10.88-14.18-10.4-4.33.31-8.24,2.63-9.36,7.32-3.54,14.87-2.73,38.2,9.48,48.52Z"/>
          <path class="cls-2" d="M830.92,442.7l21.76,13.3-4.99,9.69-19.99-12.95-4.89,13.61,20.21,12.23,51.64,24.53c1.98.94,3.01,3.08,2.74,4.71-.35,2.07-2.21,3.61-4.7,3.54-7.34-.96-14.08-2.69-21.15-5.55-21.75-8.8-41.91-20.27-62.63-32.79,7.29-26.94,19.01-51.85,34.49-75.48,7.42,7.01,14.72,12.13,23.3,15.97l10.65,4.96c-.61,3.18-1.78,5.65-4.22,7.65-9.28-3.66-17.72-7.88-26.26-13.17l-6.67,11.45,10.73,5.02c-.75,3.12-2.03,5.42-3.63,8.07l-11.41-4.92-5,10.13Z"/>
          <path class="cls-2" d="M537.11,643.18c-3.4,1.93-10.02,2.68-10.94-1.84-.68-3.33,3.44-7.6,6.1-9.67,12.54-9.75,22.81-21.26,29.95-35.5,2.71-5.41,2.57-11.46-1.4-16.21-24.38-29.14-66.93-47.32-102.79-59.1-3.01-.99-6.5-4.54-5.02-7.54,1.73-3.51,6.75-2.81,10.24-1.7,30.3,9.63,69.37,27.22,93.9,47.1,14.77,11.97,27.17,27.85,16.98,45.53-7.28,12.63-24.31,31.72-37.01,38.92Z"/>
          <path class="cls-2" d="M311.94,331.11c-7.68,4.44-22.61,29.15-28.57,40.12-4.53-1.06-8.77-1.41-13.13-3.8,7.25-15.89,16.75-29.68,28.76-41.41,16.06-15.7,27.82-13.67,41.4-40.53l12.54-24.82c3.43-6.79,8.1-12.38,13.67-17.51,4.2-3.87,9.15-6.23,15.05-6.86s11.58,3.36,11.51,9.39c-.09,7.5-12.64,2.92-15.14,5.74-5.05,5.69-8.73,12.1-12.38,18.8l-15.92,29.24c-5.93,10.89-15.22,18.6-25.94,24.79l-11.85,6.85Z"/>
          <path class="cls-2" d="M353.95,50.94l-2.3-1.68c-.8-.59-.4-2.19.15-3.33,12.35-25.77,40.75-36.68,68.32-39.06l20.95-.75c19.56-.7,43.82-1.73,54.88-18.47,2.12-3.22,2.3-5.88-.14-8.96-4.65-5.86-10.95-9.71-17.83-13.53l5.2-12.01c9.65,4.56,17.75,11.81,22.45,21.14,8.25,16.4-4.12,26.49-18.78,34.62-12.69,7.04-26.08,9.57-40.59,9.61-6.04.02-11.73.39-17.87-.03-21.33-1.49-44.42,3.59-58.92,19.48-4.3,4.71-6.6,10.54-9.79,16.14-2.33.17-3.79-1.73-5.73-3.15Z"/>
          <path class="cls-2" d="M341.87,343.59c-11.13,10.58-20.13,22.15-29.09,34.62-4.2-.4-8-1.04-12.74-2.54,9.72-16.3,21.24-30.78,35.16-43.02,4.01-3.52,9.76-3.34,14.41-1.96l18,5.31c12.55,2.08,24.64-1.63,32.53-11.99,12.82-16.85,15.19-40.02,7.42-59.6-.54-1.37.29-2.76.68-3.47,1-1.79,6.56-2.49,8.94,1.47,4.16,6.93,6.03,14.88,6.04,22.96v6.5c.03,30.2-22.94,59.79-56.13,57.17-12.83-1.01-23.22-7.36-25.23-5.45Z"/>
          <path class="cls-2" d="M431.86,508c-2.11,1.8-8.29,1.52-10.47-.4-3.75-8.82-4.09-18.58-4.67-28.08l-.62-10.13c.51-13.84-5.63-26.11-17.38-33.56l-17.13-8.61-61.56-25.51c-3.87-1.6-7.28-4.54-8.97-8.17-.96-2.06.59-4.31,1.69-5.26,1.46-1.27,4.34-2.29,6.5-1.32l34.86,15.66,38.86,17.28c19.57,8.71,32.75,21.71,35.1,43.51l3.41,31.72c.44,4.07,1.72,9.08.39,12.88Z"/>
          <path class="cls-2" d="M626.06,68.58c-14.06,24.85-52.69,24.17-53.51,16.93-.14-1.24.94-3.61,2.7-3.98l19.16-4.01c8.14-1.7,14.25-6.13,19.69-12.39,5.14-5.92,8.03-13.06,12.03-19.9l16.07-27.53c14-23.98,4.1-47.85-10.32-69.77-.73-1.11-1.09-2.08-.98-3.31.3-3.34,9.43-5.31,12.31-.96l7.1,10.72c9.63,14.54,15.25,35.83,9.71,52.45-2.49,7.46-6.79,13.7-10.61,20.47l-23.35,41.29Z"/>
          <path class="cls-2" d="M240.3,237.62c-1.4-.93-.16-4.51.3-5.99,5.35-17.03,11.57-33.18,18.04-49.8.84-2.15-2.98-6.55-3.35-15.57-.52-12.58,8.05-22.42,20.28-24.47,9.18-1.54,18.03,2.11,22.4,9.77,4.61,8.09,3.58,17.87-2.75,24.98-6.03,6.78-14.89,9.85-24.07,10.85-2.95,4.33-4.7,8.96-6.46,13.89l-15.17,42.44-9.23-6.11ZM284.29,165.29c0-3.69-2.99-6.67-6.67-6.67s-6.67,2.99-6.67,6.67,2.99,6.67,6.67,6.67,6.67-2.99,6.67-6.67Z"/>
          <path class="cls-2" d="M771.41,648.74c-1.84-.33-3.47-1.45-3.37-3.35,1.17-21.56-5.17-42.08-17.02-59.99-5.12-7.73-10.52-14.73-17.65-20.54-6.75-5.51-13.64-9.98-22.06-12.27-2.02-.55-3.41-2.41-3.4-4.18.04-7.98,19.68-6.14,30.04.08,7.02,3.66,12.36,8.67,17.67,14.34,22.39,23.88,33.17,55.2,28.69,88.2l-12.89-2.29Z"/>
          <path class="cls-2" d="M267.53,510.54l-13.69-46.68-23.31-69.23c-3.51-10.42-4.69-25.33,4.23-24.37,2.5.27,5.52,2.19,6.14,5.46,3.71,19.52,10.67,37.15,18.29,55.53,10.21,24.61,16.58,50.12,22.1,76.1.81,3.79-2.88,7.04-5.4,7.75-2.94.82-7.23-.7-8.37-4.56Z"/>
          <path class="cls-2" d="M553.51,595.4c1.79,4.86-4.68,9.89-8.28,11.47-3.68-11.84-10.16-21.92-20.61-29.07-42.91-29.34-92.05-48.06-143.05-57.54-4.01-.74-6.36-4.86-4.58-8.07,1.48-2.67,5.22-4.53,8.45-3.72,50.49,12.68,103.95,31.36,146.77,61.22,9.07,6.33,17.26,14.75,21.3,25.7Z"/>
          <path class="cls-2" d="M297.17,143.13c-4.32-1.37-6.92-3.99-10.14-6.41l4.38-10.96c6.54-13.73,14.97-26,24.37-38.07-3.77-10.72-1.72-22.38,6.51-29.82,7.77-7.03,19.17-8.27,27.84-2.77,9.07,6.71,10.48,18.33,5.45,28.37-7.31,11.56-19.09,15.32-33.11,14.14-10.35,14.09-18.67,28.79-25.3,45.52ZM342.67,75.84c0-3.58-2.91-6.49-6.49-6.49s-6.49,2.91-6.49,6.49,2.91,6.49,6.49,6.49,6.49-2.91,6.49-6.49Z"/>
          <path class="cls-2" d="M310.77,512.56c.66,3.16-5.36,3.31-7.09,2.65-1.96-.75-4.45-2.51-5.36-5.73-11.99-42.58-26.03-84.3-42.22-125.6-1.33-3.38-2.02-6.53-.74-9.6.79-1.9,2.85-3.28,4.34-3.31s4.61.95,5.61,3.19c19.67,44.23,35.4,90.03,45.45,138.4Z"/>
          <path class="cls-2" d="M1281.85,78.91l-41.37,44.62c-3.49,3.77-10.96,3.93-12.71-1.11,1.24-4.66,5.71-8.83,8.98-12.61l34.72-40.01c4.06-4.68,9.8-6.66,16.04-5.33,23.64,5.03,45.86,14.58,65.57,28.32l-.44,16.57c-8.92-8.16-17.44-14.29-27.4-19.66-13.24-7.09-27.65-10.69-43.38-10.78Z"/>
          <path class="cls-2" d="M1320.63,444.3c-7.61,5.85-19.22,5.54-26.31.06-6.49-5.03-10.02-12.76-7.4-20.15l6.64-10.29-16.5-1.06c-10.81-3.19-19.79-17.82-15.91-23.79,1.83-2.82,5.92-1.06,8,.51,8.31,6.31,17.63,8.5,27.88,6.37l16.58-5.58-3.35,15.02c8.38,2.02,14.93,7.9,16.94,15.09,2.45,8.78,1,17.99-6.58,23.81ZM1317.22,428.22c0-5.64-4.57-10.21-10.21-10.21s-10.21,4.57-10.21,10.21,4.57,10.21,10.21,10.21,10.21-4.57,10.21-10.21Z"/>
          <path class="cls-2" d="M994.4,433.28c-47.02-5.59-95.04-19-136.2-43.74l6.69-12.55c41.5,24.33,86.53,38.04,133.85,47.24l-4.34,9.04Z"/>
          <polygon class="cls-2" points="1353.05 600.48 1316.82 592.16 1267.12 578.76 1278.13 560.65 1353.07 577.72 1353.05 600.48"/>
          <path class="cls-2" d="M184.66,62.83c-3.87-1.75-6.84-4.33-10-7.32,14.43-12.19,28.16-23.93,40.7-37.6,3.22-3.51,6.73-31.95,24.5-44.85,4.46-3.24,9.95-2.84,14.59-.31,4.2,2.29,6.5,7.35,6.46,12.73-.05,7.19-3.52,13.13-7.9,18.6-6.86,8.55-16.18,13.65-26.35,17.35-4.74,1.72-7.93,6.1-11.64,9.3-11.15,9.61-20.53,20.21-30.35,32.1ZM243.81-6.45c-1.13-.97-2.71-1.43-4.27-.55-4.78,2.66-7.63,7.98-6.83,13.87,7.15-2.74,15.32-9.71,11.11-13.32Z"/>
          <path class="cls-2" d="M324.75,509.53c-2.21-2.36-2.98-4.95-3.59-7.78l-5.65-26.2c-2.99-13.87-5.89-27.1-11.25-40.35l-20.26-50.07c1.1-5.26,6.69-7.52,11.3-5.68,2.9,4.24,4.71,8.39,6.55,13.12,7.34,17.98,14.81,35.38,19.47,54.38l14.24,58.13c.58,2.36-1.91,5.04-3.4,5.77-2.09,1.03-5.46.77-7.43-1.32Z"/>
          <path class="cls-2" d="M402.82,481.12c-3.24,8.68-9.25,18.26-17.67,18.06-3.58-.09-6.98-1.93-9.64-5.18-12.46-15.23-17.96-41.22-10.79-60.37,9.88.37,18.99,2.91,27.04,8.6,12.22,8.64,16.26,24.94,11.05,38.89ZM386.35,482.24c7.66-8.37,7.92-19.63,1.78-27.91-1.92-2.59-5.13-3.57-7.82-2.3-8.38,3.98-1.72,22.31,6.04,30.21Z"/>
          <path class="cls-2" d="M298.41-47.41l-3.48,3.88c-5.22,5.82-8.95,13.11-10.86,20.95-4.13,16.96-12.02,31.84-25.41,43.27l-21.81,18.61c-12.2,10.41-23.76,25.42-31.15,40.15l-10.01-7.03c-1.28-.9-2.71-2.37-1.59-4.14,12.26-19.25,31.72-33.13,49.91-46.7,8.28-6.18,15.31-12.89,19.88-22.26,3.6-7.38,6.2-14.91,8.17-22.93,2.46-10,6.81-18.88,13.66-26.3,0,.53-.02,1.51.24,1.69l12.45.81Z"/>
          <path class="cls-2" d="M417.61,231.32c-4.46,4.58-10.23,7.37-16.26,5.39-5-1.64-7.35-7.61-6.5-12.95,2.74-17.12,10.71-32.58,22.38-45.24,3.58-3.89,7.82-6.72,12.85-8.16,4.78-1.38,9.37,1.45,10.26,6.57.83,4.78,1.25,10.37-.02,15.36-3.78,14.87-11.91,27.92-22.71,39.02ZM426.49,198.54c.73-1.87-.77-3.79-1.3-4.72-3.45-6.07-16.36,10.26-14.06,24.47,6.94-5.17,12.3-11.97,15.36-19.75Z"/>
          <path class="cls-2" d="M221.5-49.31l17.85,1.73c-5.26,7.66-8.87,15.96-12.75,24.44l-9.77,21.36c-2.67,5.84-5.09,11.51-9.64,16.2l-19.5,20.11-11.76,12.43c-2.14,2.27-3.5,4.37-3.07,8.19l-12.36-7.32c7.04-9.76,15.68-16.99,23.32-25.67l6.2-7.04c15.52-20.54,17.52-44.43,31.47-64.43Z"/>
          <path class="cls-2" d="M394.14,661.66c-2.83.02-6.1-1.66-7.97-3.59-1.25-1.29-1.09-4.68-.35-5.95,2.75-4.75,7.45-4.41,12.15-3.79,15.59,2.08,30.93,1.14,45.63-4.03,20.78-7.31,35.63-24.83,46.8-44.06,2.64,1.63,5.99,3.55,7.56,6.8,1.56,3.22.31,7.33-1.81,10.5-9.81,14.72-23.35,26.64-39.46,34.31-11.57,5.51-23.58,8.35-36.32,9.62l-26.23.19Z"/>
          <path class="cls-2" d="M9.67,574.74c-4.14,3.57-7.81,5.58-12.36,8.1-19.41-29.28-38.42-57.86-59.43-85.62-.94-1.24-2.26-1.75-1.97-3.36.22-1.22,1.5-1.58,3.07-2.24,2.11-.88,4.99-4.07,7.53-3.11l5.74,6.02c21.66,24.72,40.57,51.12,57.42,80.21Z"/>
          <path class="cls-2" d="M1059.56,407.25l12.27,11.79c-26.36,4.95-46.97-25.01-46.42-49.96.48-22.11,24.62-32.02,29.87-26.02,3.98,4.54-3.84,13.31-6.68,27.38-2.74,13.58,1.5,26.57,10.96,36.8Z"/>
          <path class="cls-2" d="M196.89,636.03l-21.07-37.22-22.3-46.01,7.98-5.3c1.36-.9,2.98.57,3.87,1.97,14.66,25.46,30.23,49.82,47.54,74.4l-16.03,12.17Z"/>
          <path class="cls-2" d="M519.55,50.12c-1.86,1.44-4.53,1.02-6.84.53-2.34-.5-4.45-4.07-2.7-6.09,20.92-24.04,41.63-28.25,51.73-39.5,15.22-16.95,6.35-37.65,7.74-43.74.46-2.01,3.19-2.43,4.92-2.39,1.85.04,3.75,1.44,4.57,3.72,5.92,16.38,6.92,32.19-3.48,46.92-8.27,11.71-23.31,15.26-36.2,25.25l-19.74,15.3Z"/>
          <path class="cls-2" d="M380.91,324.88c-5.59,2-11.02-.26-12.7-5.73-1.69-5.5-2.44-11.29-1.85-17,1.5-14.53,5.96-30.54,17.11-39.74,4.16-3.43,10.3-2.89,13.12,1.87,9.69,16.4,4.77,37.12-6.2,52.49-2.47,3.46-5.07,6.52-9.48,8.11ZM387.44,280.01c-2.12-.36-4.21.76-5.35,2.73-4.78,8.32-6.19,17.77-1.37,26.54,7.68-9.37,15.03-27.87,6.72-29.27Z"/>
          <path class="cls-2" d="M489.73,186.67c-3.4,1.74-7.91,2.65-10.46-.65-1.41-1.82,1.25-5.67,3.4-6.95,20.57-12.2,35.34-30.08,45.56-51.75l11.94-25.31c3.78-1.62,9.16.1,11.8,3.26-4.48,20.2-12.82,38.62-26.36,53.66-10.39,11.54-21.83,20.55-35.87,27.72Z"/>
          <path class="cls-2" d="M1029.52,411.17c.96,1.29,1.44,2.72,1.03,4.43-23.77-1.31-36.94-23.66-35.86-46.79.4-8.69,4.15-16.02,9.36-22.65,4.1-5.23,10.14-8.73,16.97-6.52,2.48.8,2.94,4.49,2,6.69l-4.96,11.49c-7.89,18.3-.06,37.79,11.46,53.35Z"/>
          <path class="cls-2" d="M222.01,90.81c-4.32-1.52-7.06-4.31-10.75-7.14l8.19-12.03c11.2-14.64,24.21-27.5,38.96-38.75,12.08-9.21,21.68-20.2,27.14-34.49l7.96-20.84,3.18-5.97,9.03,8.55-12.04,22.52c-4.99,9.33-9.91,18.61-17.48,26.14l-21.66,18.82-10.07,9.48c-9.24,9.82-17.12,20.31-22.44,33.71Z"/>
          <path class="cls-2" d="M983.29,512.4l-10.19-3.15c5.1-17.27,10.65-33.33,17.52-49.5,6-13.72,12.74-26.33,21.67-38.87l12.34,7.34c-13.88,24.24-26.12,48.54-36.34,74.25-1.42,3.56-2.42,6.44-5,9.93Z"/>
          <path class="cls-2" d="M29.71,562.82l-10.28,6.85c-19.98-30.67-40.85-60.28-62.88-89.91l7.08-7.05c.87-.86,2.44.06,3.16,1.04l37.61,51.05c9.05,12.29,17.06,24.23,25.31,38.03Z"/>
          <path class="cls-2" d="M1231.52,556.58c-5.9,11.19-12.96,21.16-21.74,29.57-3.99,3.82-9.1,7.18-14.54,5.19-2.56-.94-.33-3.66.69-4.94,9.45-11.83,16.81-24.37,23.94-37.61l14.71-27.32c5.56-10.33,8.31-21.51,8.25-33.05,0-.95,1.21-1.76,1.77-1.82,3.29-.36,8.29,13,5.56,26.36-2.94,14.4-9.16,27.54-16.67,40.24l-10.56-5.19c-.58-.28-1.44.95-.87,1.67l9.46,6.88Z"/>
          <path class="cls-2" d="M1012.78,512.72c-1.05,2.95-3,5.23-6.07,6.22-2.91.93-9.51-2.77-8.68-6.62,2.91-13.48,7.86-25.76,13.12-38.3,6.48-15.45,15.19-29.11,25.77-42.01,3.2.4,5.7.68,9.16,2.69-10.36,18.04-18.49,36.35-25.42,55.85l-7.89,22.17Z"/>
          <path class="cls-2" d="M1340.47,473.13c0,12.03-9.75,21.78-21.78,21.78s-21.78-9.75-21.78-21.78,9.75-21.78,21.78-21.78,21.78,9.75,21.78,21.78ZM1328.06,473.57c0-5.19-4.2-9.39-9.39-9.39s-9.39,4.2-9.39,9.39,4.2,9.39,9.39,9.39,9.39-4.2,9.39-9.39Z"/>
          <path class="cls-2" d="M122.59,515.98c3.19-.2,5.4.84,6.21,3.22.79,2.34.04,4.97-2.58,6.47-7.75,4.44-25.84,11.36-27.94,7.4l-9.44-17.89-8.68-13.07c-1.69-2.55-.77-5.72,2.27-7.3,8.26-4.3,17.82-5.07,27.32-5.42,5.12-.19,9.68,2.48,9.92,8.03.05,1.08-1.3,3.08-2.41,3.58-7.05,3.2-13.04,7.33-19.24,11.94-1.09.81-1.8,1.42-1.64,2.81.09.81,1.49,1.78,2.87,1.7l23.35-1.48Z"/>
          <g>
            <path class="cls-2" d="M125.39,412.59c-2.48-.58-2.94-4.31-3.06-5.94-.15-2.2.92-4.81,3.52-5.34l21.09-4.29-22.18-9.13c-2.53-2.81-1.23-11.24,2.28-13.12,7.33-3.92,26.38-7.46,33.45-2.77-.28,6.9.18,13.1,1.96,19.61,2.71,9.86.08,18.8-9.23,20.79-9.04,1.93-18.4,2.39-27.84.19Z"/>
            <path class="cls-2" d="M84.56,397.27c-.05,3.93,22.32,3.38,25.05,6.89,2.03,2.61.52,8.03-3.11,8.89-9.79,2.32-19.97,2.21-29.41-.54-4.41-1.28-5.82-5.18-5.84-9.16l-.13-24.07c0-1.47.9-2.96,1.63-3.57.87-.73,2.9-1.12,4.29-.89l29.5,4.98c2.49.42,3.28,3.76,3.12,5.64-.2,2.44-1.97,4.4-4.69,5.16l-18.78,5.29c-.96.27-1.62.38-1.63,1.38Z"/>
          </g>
          <path class="cls-2" d="M44.65,36.18c-8.21.71-5.26-14.85-5.14-24.24l.34-28.07-.39-28.74-.71-10.22c-.3-4.27,1.89-7.54,6-7.82,4.2-.28,6.77,3.11,6.91,7.72.61,20.41.84,40.55-.13,61.01-.42,8.87.11,17.38-1.44,25.89-.51,2.8-3.36,4.28-5.43,4.46Z"/>
          <path class="cls-2" d="M840.77,649.34c-.28,3.48-.38,8.9-3.74,10.44-3.43,1.57-8.34-.54-11.7-1.25-1.03-7.07-.16-13.25.28-20.07l2.03-31.63,2.3-25.07,11.76.06,1.1,6.78-.29,39.47-1.74,21.27Z"/>
          <polygon class="cls-2" points="1353.08 543.55 1353.05 562.56 1285.31 547.64 1290.82 532.36 1324.49 537.73 1353.08 543.55"/>
          <path class="cls-2" d="M153.04,624.15c-3.23,3.26-6.69,4.71-11.12,7.12l-40.58-72.59c4.39-2.4,8.98-3,14.03-3.96l37.67,69.42Z"/>
          <path class="cls-2" d="M710.06-2.97c-4.11,1.44-7.3,2.77-11.46,3.28l-.64-14.93c18.65-8.64,37.35-16.03,56.94-22.31,2.4-.77,6.26-.73,7.76,1.25,3.53,4.67.74,11.02-4.52,13.76-15.2,7.93-31.4,13.11-48.08,18.96Z"/>
          <path class="cls-2" d="M679.31,655.19l7.5-17.75c3.82-9.04,4.76-18.09,3.4-27.88-1.29-9.35-2.05-24.35,3.47-24.93,5.97-.62,8.8,12.78,10.35,21.27,3.59,19.67,1.56,38.14-11.66,53.36-2.13,2.46-4.84,3.67-7.76,2.94-2.48-.62-6.88-3.31-5.3-7.03Z"/>
          <path class="cls-2" d="M364.48,500.76c.81,2.45-.74,4.68-1.62,5.65-1.23,1.34-4.07,1.7-6.14.87-2.84-1.13-4.66-4.31-5.61-7.53-7.54-25.79-15.72-50.91-24.95-76.15-1.04-2.85-.33-5.43,1.93-6.64,2.5-1.34,5.73-.52,7.04,2.41l9.17,20.41,20.18,60.98Z"/>
          <path class="cls-2" d="M1309.02,361.34c0,12.35-10.01,22.36-22.36,22.36s-22.36-10.01-22.36-22.36,10.01-22.36,22.36-22.36,22.36,10.01,22.36,22.36ZM1290.11,372.37c6.52-3.35,8.09-11.3,4.79-17.22-3-5.38-9.89-8.24-16.01-5.23-6.31,3.11-8.24,10.62-5.45,16.5,2.89,6.1,9.99,9.39,16.67,5.95Z"/>
          <path class="cls-2" d="M979.33,356.01c-2.18,7.83-1.18,15.85,1.31,23.02,2.86,8.25,8.18,14.29,13.19,21.82-10.41-.03-18.75-4.86-25.07-12.5-9.03-10.92-10.19-27.45-2.95-39.79,5.71-9.72,16.33-14.73,27.2-12.94,1.78.29.76,2.98-.39,3.82-5.71,4.18-11.25,9.2-13.3,16.57Z"/>
          <g>
            <path class="cls-2" d="M163.37,461.52c-4.91,9.57-29.84,9.88-33.8,4.61-.83-1.1-1.89-4.39-.5-5.54,6.64-4.95,15.67-4.83,22.55-8.72-7.14-2.18-13.64-4.35-20.84-5.1-2.82-.29-5-1.31-5.92-3.97-.72-2.1.42-5.52,3.15-6.69,8.81-3.79,28.1-9.28,31.96-5.44,5.09,5.07,7.58,22.68,3.39,30.85Z"/>
            <path class="cls-2" d="M113.11,464.08c3.12,6.43-8.7,9.57-18.97,10.1l-12.5.65c-6.01.31-11.13-3.71-10.79-10.23.25-4.84-1.12-10.5.45-15.28,1.78-3.47,7.61-5.55,11.43-6.11l22.92-3.36c2.17-.32,4.2,2.28,4.76,3.66.72,1.81-.35,4.47-2.53,5.36l-22.99,9.43c3.76,2.54,7.68,2.44,11.58,2.65l11.72.64c2.2.12,4.06.71,4.92,2.48Z"/>
          </g>
          <path class="cls-2" d="M184.19,630.78l-7.78,5.07c-3.36-3.18-5.76-6.75-8.2-10.87l-42.81-72.37,10.86-1.42,20.22,32.72,27.71,46.88Z"/>
          <path class="cls-2" d="M236.6,99.08c-1.44,2.82-8.59-3.47-7.94-4.51l15.4-24.65c5.12-8.2,13.06-13.84,20.16-20.31l11.41-10.39,13.7-13.68c4.73-4.73,9.19-9.49,12.5-15.51l.53-5.74c1.71-5.44,4.16-10.37,7.73-14.8,2,.34,5.42,3.23,4.36,5.03l-7.58,12.76c-4.73,12.62-12.06,23.51-21.53,33.01l-8.22,8.24-8.73,8.33c-6.23,5.94-12.34,11.41-17.51,18.35-5.6,7.51-10.03,15.51-14.3,23.85Z"/>
          <path class="cls-2" d="M424.86,251.07c-2.93.7-5.2-.46-6.19-2.28-1.08-2-.58-4.51,1.1-6.26l11.44-11.94c11.52-12.02,17.95-27.95,18.11-44.84l-1.08-12.39c-.17-1.95,1.28-5.27,3.61-5.32,3.65-.08,5.98,3.62,6.79,6.91,6.48,26.21-8.49,52.57-26.44,71.38-2.05,2.15-4.22,4-7.35,4.75Z"/>
          <path class="cls-2" d="M1104.26,408.27c-4.38,5.9-11.75,6.48-18.23,4.81-6.83-1.76-11.54-6.72-15.98-11.98-24.63-29.23-4.24-66.13,3.71-58.79.85.78,1.16,2.48.66,4.09l-4.85,15.58c-2.86,17.69,7.64,35.18,24.05,41.88,3.59,1.47,6.99,1.84,10.64,4.42Z"/>
          <path class="cls-2" d="M1023.92,303.89c.74,6.08,9.18,11.99,7.15,15.86-1.87,3.57-8.88.97-14.45-6.36-2.86-3.75-6.61-7.87-6.15-13.16.65-7.38,5.18-13.86,10.56-19,8.9-8.5,17.27-16.74,24.38-26.85,1.8-2.56,5.32-3.22,7.76-2.01,2.65,1.31,3.28,5.16,1.3,7.87l-9.27,12.64c-1.62,2.21-3.12,6.01-5.98,7.22-9.38,3.96-16.6,13.01-15.29,23.81Z"/>
          <path class="cls-2" d="M954.74,320.44c1.02,2.24.41,4.99-1.17,5.86-1.23.68-4.39.43-5.48-1.37-7.82-12.86-10.97-35.38-1.54-45.73,6.36-6.99,14.74-11.37,22.95-15.84,2.95-1.6,4.64-3.66,5.78-6.86l2.63-7.39c.51-1.43,2-2.51,3.23-2.5,1.39.01,3.26,1.07,3.88,2.67,3.22,8.27.29,17.99-7.7,21.78l-14.19,6.73c-17.45,8.28-16.2,25.4-8.39,42.64Z"/>
          <path class="cls-2" d="M1255.28,452.81c0,10.97-8.89,19.87-19.86,19.87s-19.86-8.89-19.86-19.87,8.89-19.87,19.86-19.87,19.86,8.89,19.86,19.87ZM1244.63,452.71c0-5.89-4.77-10.66-10.66-10.66s-10.66,4.77-10.66,10.66,4.77,10.66,10.66,10.66,10.66-4.77,10.66-10.66Z"/>
          <path class="cls-2" d="M1043.58,504.81c-3.36.08-7.06-.22-9.7-2.23-1.82-1.38-1.04-4.67-.14-6.77,8.59-19.89,19.37-38.23,32.42-55.49,4.33-5.73,10.47-11.85,13.85-8.42.78.79,1.7,2.79.72,4.18l-8.06,11.5c-9.45,13.47-17.22,27.49-23.33,42.79l-5.77,14.45Z"/>
          <path class="cls-2" d="M1353.02,527.26c-16.81-3-33.2-4.92-50.15-6l-7.38-.47,2.16-14.11c18.97.17,36.95,1.8,55.4,4.85l-.04,15.74Z"/>
          <path class="cls-2" d="M1209.3,473.74c0,10.89-8.83,19.72-19.72,19.72s-19.72-8.83-19.72-19.72,8.83-19.72,19.72-19.72,19.72,8.83,19.72,19.72ZM1199.5,473.93c0-6.15-4.99-11.14-11.14-11.14s-11.14,4.99-11.14,11.14,4.99,11.14,11.14,11.14,11.14-4.99,11.14-11.14Z"/>
          <path class="cls-2" d="M1286.2,650.8c-4.61.4-8.45-.62-13.47-1.22l21.1-55.76,14.76,3.97-22.39,53.01Z"/>
          <path class="cls-2" d="M839.26,538.53c-.87,2.15-3.22,2.97-4.66,3.09-6.29.52-2.37-7-14.36-14.69l-29.34-18.83-21.57-15.86c-1.29-.94-3.27-4.11-1.37-4.99,2.63-1.22,6.74.34,9.15,1.89l18.93,12.2c5.36,3.46,10.27,6.42,16.12,8.91,11.4,4.83,31.55,17.27,27.08,28.29Z"/>
          <path class="cls-2" d="M1254.36,647.62c-4.44.64-8.26-.02-12.35-1.19,5.73-20.85,12.51-40.28,21.47-59.46,4.08.66,7.46,1.69,11.02,3.2l-20.15,57.45Z"/>
          <path class="cls-2" d="M689.83,522.33c-4.62,2.44-8.49.19-12.06-2.42-8.47-6.2-16.73-12.14-26.34-16.53l-40.19-15.03c-1.3-.49-2.06-1.33-2.2-2.28-.57-3.98,9.44-3.14,17.14-.96,18.97,5.36,36.96,12.98,53.77,23.15,7.11,4.3,15.25,11.24,9.87,14.08Z"/>
          <path class="cls-2" d="M999.78,289.02c-7.06,17.78,6.86,21.31,8.05,26.63.24,1.06-.34,3.28-1.58,3.74-4.31,1.6-7.89-.68-10.96-3.29-17.12-14.55-4.95-39.01,11.62-53.6,4.1-3.61,10.83-4.66,13.98.78,1.41,2.44-1.55,5.41-3.72,6.3-8.88,3.66-13.86,10.51-17.41,19.44Z"/>
          <path class="cls-2" d="M1254.52,351.37c0,10.56-8.56,19.13-19.12,19.13s-19.12-8.56-19.12-19.13,8.56-19.13,19.12-19.13,19.12,8.56,19.12,19.13ZM1243.2,359.81c5.24-4.77,4.58-12.26.46-16.74s-11.36-5.33-16.15-.98c-4.99,4.53-4.79,11.59-.65,16.3,3.95,4.5,11.25,6.05,16.34,1.41Z"/>
          <path class="cls-2" d="M949.47,370.06l7.65,14.94c-12.73-1.09-23.22-10.48-26.86-22.5-2.8-9.25,1.31-18.69,9.79-22.65,4.36-2.03,8.51-2.85,13.44-1.96.4,1.67-.39,3.18-1.37,4.57-5.8,8.23-6.44,17.99-2.65,27.59Z"/>
          <path class="cls-2" d="M1087.64,577.85c0,10.11-8.19,18.3-18.3,18.3s-18.3-8.2-18.3-18.3,8.19-18.3,18.3-18.3,18.3,8.2,18.3,18.3ZM1079.42,578.19c0-5.8-4.7-10.5-10.5-10.5s-10.5,4.7-10.5,10.5,4.7,10.5,10.5,10.5,10.5-4.7,10.5-10.5Z"/>
          <path class="cls-2" d="M1179.76,579.4c0,10.15-8.23,18.38-18.38,18.38s-18.38-8.23-18.38-18.38,8.23-18.38,18.38-18.38,18.38,8.23,18.38,18.38ZM1170.12,585.83c3.26-4.1,3.26-9.49.35-13.52-2.48-3.44-7.12-5.11-11.97-3.68-3.73,1.11-6.84,5.03-7.28,9.82-.47,5.08,2.38,9.42,6.63,11.13s9.05.29,12.26-3.74Z"/>
          <path class="cls-2" d="M603.36-37.63c5.76,12.08,15.39,37.07,3.96,40.44-2.69.79-7.31-.52-8.27-4.23l-9.43-36.4c-.53-2.05.03-4.94,1.04-6.26.9-1.16,3.05-3.3,5.17-2.27,3.31,1.6,5.89,5.29,7.53,8.72Z"/>
          <path class="cls-2" d="M1133.41,561.6c0,10.06-8.16,18.22-18.22,18.22s-18.22-8.16-18.22-18.22,8.16-18.22,18.22-18.22,18.22,8.16,18.22,18.22ZM1125.7,562.53c.2-6.78-5.09-10.68-10.54-10.85-5.62-.18-10.85,3.39-11.35,9.68s4.7,11.03,10.61,11.28c5.24.22,11.09-3.83,11.28-10.11Z"/>
          <path class="cls-2" d="M1182.57,433.04c0,9.9-8.03,17.93-17.93,17.93s-17.93-8.03-17.93-17.93,8.03-17.93,17.93-17.93,17.93,8.03,17.93,17.93ZM1175.12,433.21c0-5.71-4.63-10.33-10.33-10.33s-10.33,4.63-10.33,10.33,4.63,10.33,10.33,10.33,10.33-4.63,10.33-10.33Z"/>
          <g>
            <path class="cls-2" d="M320.27,597.69c-3.64-3.33-5.27-7.17-8.02-10.97,5.93-18.35,3.31-34.53-1.34-52.75-.59-2.32.72-4.61,2.17-5.76,3.72-2.94,9.85,1.36,12.08,5.38,7.78,14.03,5.17,40.74.3,57.16-.82,2.76-2.22,4.99-5.19,6.94Z"/>
            <path class="cls-2" d="M359.42,656.69l-6.01-7.8c-2.45-3.18-2.43-5.19-.83-8.44,9.06-18.44,14.59-38.11,17.84-58.34.15-.91,2.33-.87,2.83-.49s1.33.85,1.69,2.03c3.04,9.9,3.62,20.1.84,30.37-3.96,14.62-9.55,28.34-16.36,42.67Z"/>
            <path class="cls-2" d="M344.22,631.69c-6.32-2.96-7.85-10.86-4.85-16.91,7.02-14.13,12.15-28.52,14.89-44.06.26-1.46,1.94-2.44,2.85-2.55,4.49-.52,5.56,10.63,5.23,18.98-1.66,15.98-7.95,30.82-18.12,44.53Z"/>
            <path class="cls-2" d="M333.53,611.64c-3.42-1.62-4.52-4.77-6.78-7.81,6.31-15.52,10.1-31.45,11.76-48.17.16-1.64,1.47-4.18,3.32-3.53,8.24,2.89,7.83,25.31,3.39,37.38-2.87,7.81-6.01,15.04-11.69,22.12Z"/>
          </g>
          <path class="cls-2" d="M593.1,64.13l-26.7,13.19c-2.64,1.3-6.3-.45-7.27-2.38-1.06-2.12-.85-5.37,1.5-7.2,11.21-8.73,23.68-15.44,37-20.54,3.07-1.17,5.55-.82,7.4,1.35,4.33,5.08-4.01,11.66-11.93,15.58Z"/>
          <path class="cls-2" d="M1166.87,350.09c0,9.06-7.34,16.4-16.4,16.4s-16.4-7.34-16.4-16.4,7.34-16.4,16.4-16.4,16.4,7.34,16.4,16.4ZM1159.03,350.71c-.2-4.53-3.69-6.49-6.88-7.28-3.52-.87-6.87.65-9.23,3.81-1.72,2.31-1.41,5.78.22,8.21,1.37,2.04,3.56,3.22,6.75,3.42,4.47.28,9.36-3.09,9.14-8.16Z"/>
          <path class="cls-2" d="M1116.24,384.08c-10.97,3.98-23.42-2.27-25.48-13.59-1.14-6.23,1.04-11.45,5.98-15.23,8.64-6.61,21.8-3.9,27.55,5.43,2.77,4.5,3.41,9.09,1.55,13.97-1.5,3.96-4.4,7.53-9.6,9.41ZM1119.26,368.46c-.17-7.19-6.64-11.39-13.12-10.86-4.54.37-8.37,3.78-9.08,7.92-.7,4.06,1.63,8.09,5.34,10.25,3.27,1.9,7.22,2.48,10.99.87,2.47-1.05,5.98-4,5.88-8.18Z"/>
          <path class="cls-2" d="M973.08,480.1c-16.09-2.37-31.75-5.83-47.78-10.94l3.93-11.09,47.84,10.66c-.56,3.92-2.05,7.38-3.99,11.37Z"/>
          <path class="cls-2" d="M1190.92,537.51c0,9.5-7.7,17.19-17.19,17.19s-17.19-7.7-17.19-17.19,7.7-17.19,17.19-17.19,17.19,7.7,17.19,17.19ZM1183.69,537.63c0-5.8-4.7-10.51-10.51-10.51s-10.51,4.7-10.51,10.51,4.7,10.51,10.51,10.51,10.51-4.7,10.51-10.51Z"/>
          <polygon class="cls-2" points="922.11 468.07 870.8 448.3 875.1 439.48 926.38 456.98 922.11 468.07"/>
          <path class="cls-2" d="M977.38,212.4c.6,1.66.92,4.94-.16,6.48-3.75,5.33-14.02-8.05-11.71-21.17.77-4.39,4.52-6.88,7.57-9.49,3.18-2.72,4.3-6.55,6.25-10.69,6.92,4.5,17.64,13.24,15.98,18.47-1.9,6-10.63,3.32-18.17.92-1.48-.47-5.39-.13-4.65,1.92l4.89,13.55Z"/>
          <path class="cls-2" d="M1191.74,410.45c-4.44,2.6-10.1,5.25-14.92,2.83-1.57-1.42,1.25-4.99,2.8-5.92,9.57-5.7,15.11-14.16,17.47-24.74,1.79-8.03,7.58-15.92,12.33-12.4,1.52,1.13.97,3.03.59,5.03-2.62,13.9-5.07,27.46-18.28,35.2Z"/>
          <path class="cls-2" d="M961.45,507.05c-14.37-.25-27.46-4.5-40.89-8.77l5.48-12.33,38.54,12.01c1.91,2.09.2,8.84-3.14,9.1Z"/>
          <path class="cls-2" d="M1021.53,204.29l-13.08-12.04-11.48-10.29c-5.3-4.75-10.08-10.23-11.49-17.18-.45-2.22,1.19-4.76,2.85-5.22,1.39-.39,4.35.8,5.1,2.61,3.56,8.5,9.33,14.62,17.21,19.4,7.86,4.76,19.21,14.98,16.5,21.23-.53,1.23-3.78,3.16-5.61,1.49Z"/>
          <path class="cls-2" d="M716.45,516.7c1.07,1.73-.68,3.21-1.56,3.52-1.2.43-2.69.91-4.06.12l-23.79-13.62c-12.64-7.24-24.7-14.43-38.27-20.24,2.26-6.86,10.19-2.84,17.71,1.15l40.13,21.33c3.65,1.94,7.49,3.91,9.85,7.73Z"/>
          <path class="cls-2" d="M1353.01,424.81l-.04,13.78c-6.89-2.82-12.86-7.58-16.32-14.24-8.24-15.88,1.64-35.49,8.13-33.49,6.59,2.04-7.59,21.96,8.22,33.95Z"/>
          <path class="cls-2" d="M14.53,427.35l-11.4-2.09c.35-13.65,1.55-26.92,4.13-40.24l12.29,1.58-5.01,40.75Z"/>
          <path class="cls-2" d="M1205.86,350.36c0,8.73-7.07,15.8-15.8,15.8s-15.8-7.07-15.8-15.8,7.07-15.8,15.8-15.8,15.8,7.07,15.8,15.8ZM1199.06,351.06c0-5.31-4.3-9.61-9.61-9.61s-9.61,4.3-9.61,9.61,4.3,9.61,9.61,9.61,9.61-4.3,9.61-9.61Z"/>
          <path class="cls-2" d="M1352.97,380.33c-7.84-4.15-11.26-11.46-12.31-19.37-1.29-9.3-.33-18.78,3.84-27.25,2.66-1.37,5.56-1.05,8.61-.46l-.14,47.08Z"/>
          <path class="cls-2" d="M1175.32,389.45c0,9.06-7.34,16.4-16.39,16.4s-16.39-7.34-16.39-16.4,7.34-16.4,16.39-16.4,16.39,7.34,16.39,16.4ZM1169.64,389.61c0-5.84-4.74-10.58-10.58-10.58s-10.58,4.74-10.58,10.58,4.74,10.58,10.58,10.58,10.58-4.74,10.58-10.58Z"/>
          <path class="cls-2" d="M39.84,391.39c-.75,10.73-1.86,35.72-6.35,38.47-2.27,1.39-7.06.5-8.74-1.75.09-13.27,2.08-26.51,4.12-39.3l10.97,2.58Z"/>
          <path class="cls-2" d="M976.02,233.61c.02,5.93-14.71,10.35-19.1,8.46-5.34-2.3-8.98-7.96-12.23-12.73l9.61-9.57,18.68,8.73c2.1.98,3.04,3.19,3.04,5.11Z"/>
          <path class="cls-2" d="M926.15,270.91c.89-8.73.19-16.12-2.56-23.99-.23-3.7,3.56-7.61,6.56-9.77,7.14,4.11,13.28,8.71,18.77,15.9-8.45,5.25-14.94,10.88-22.77,17.86Z"/>
          <path class="cls-2" d="M1058.31,317.42c2.2,1.39,2.64,5.39-.06,6.54-7.9,3.37-22.05-6.12-23.73-18-.91-6.44,1.11-10.93,5.61-15.05,1.68-1.54,6.43-4.37,7.89-1.11,2.14,4.77-8.15,16-1.94,19.91l12.23,7.71Z"/>
          <path class="cls-2" d="M1091.1,511.25c-.79-1.35-.97-3.79-.4-5.19l9.21-22.74c1.07-2.63,5.65-1.66,7.36-.69,6.37,3.6.81,17.93-3.12,27.48-1.04,2.52-3.51,4.09-5.49,4.33-2.88.35-5.82-.21-7.56-3.2Z"/>
          <path class="cls-2" d="M1064.44,528.84c-1.26,3.7-4.94,4.54-8.12,3.27-3.5-1.39-4.98-4.72-3.38-8.58l9.28-22.52c1.42-3.45,3.59-4.62,6.9-4.02,3.24.59,4.82,4.02,3.62,7.53l-8.29,24.31Z"/>
          <path class="cls-2" d="M34.41,622.77c-2.34,2.39-5.1,3.5-8.27,5.14l-19.35-31.21,9.86-7.19,17.77,33.26Z"/>
          <path class="cls-2" d="M971.47,305.28c2.55,9.02,13.15,10.85,11.44,16.25-1.35,4.25-17.45-1.33-20.66-15.04-3.49-14.94,8.45-27.28,12.29-22.27,2.88,3.75-5.75,11.57-3.07,21.06Z"/>
          <path class="cls-2" d="M1082.3,483.97c-1.8,3.64-5.83,3.49-8.16,2.22-3.35-1.81-4.67-4.33-3.63-8.21,1.92-7.18,5.79-13.91,11.3-18.9,2.22-2.01,5.38-1.5,7.27-.25,2.27,1.51,3.4,4.51,2.05,7.25l-8.83,17.89Z"/>
          <path class="cls-2" d="M1219.05,246.84c-5.24,6.48-16.07-5.13-19.86-14.36,10.39-6.03,25.91-8.87,25.3.86-.3,4.71-2.21,9.52-5.43,13.5Z"/>
          <path class="cls-2" d="M894.7,295.56l-14.28.74c-.36-1.13-.3-3.34.38-4.07l14.24-2.94,35.12-7.17c.57,3.4.55,6.37,0,9.69l-35.47,3.75Z"/>
          <path class="cls-2" d="M877.82,481.15l-26.71-13.16c.9-3.99,2.4-7.04,4.45-10.47l27.32,13.06-5.06,10.56Z"/>
          <polygon class="cls-2" points="1325.97 352.96 1303.97 335.85 1331.7 326.34 1325.97 352.96"/>
          <path class="cls-2" d="M1066.06,212.83c-3.46,5.36-10.28-1.59-15.04-6.95-5.24-5.9-11.6-13.64-5.88-16.85,8.67-4.87,24.01,19.02,20.92,23.81Z"/>
          <path class="cls-2" d="M983.13,457.13l-25.99-4.3c.62-3.78,2.4-6.78,3.94-10.57l26.77,3.85-4.72,11.02Z"/>
          <polygon class="cls-2" points="1169.86 229.08 1157.36 239.44 1145.7 224.27 1157.78 214.65 1169.86 229.08"/>
          <polygon class="cls-2" points="296.67 589.1 282.96 597.35 273.68 584.27 286.11 573.96 296.67 589.1"/>
          <path class="cls-2" d="M1122.81,437.29c-1.71,2.59-4.74,2.9-7.39,2.25-2.09-.51-4.7-2.47-5.22-5.37-.93-5.18,1.11-10.1,4.83-13.63,1.86-1.76,5.21-2.29,7.33-1.5,1.77.66,4.51,2.63,4.44,5.18-.12,4.48-1.38,9.1-3.99,13.06Z"/>
          <path class="cls-2" d="M900.34,490.67l-18.79-7.31c.85-4.5,2.68-8.1,4.87-12.12l18.21,7.59c-.5,4.2-2.48,7.05-4.29,11.85Z"/>
          <path class="cls-2" d="M1176.18,204.46c4.66,4.15,8.49,8.82,6.84,13.8-.7,2.11-3.58,6.55-6.43,5.21-5.39-2.54-8.81-8.9-11.89-13.62-.98-1.5.45-3.3,1.22-4.05l5.65-5.46,4.62,4.12Z"/>
          <path class="cls-2" d="M1133.57,526.33c-2.46,1.67-9.44-.66-10.51-3.43-2.14-5.57,1.72-17.39,9.23-16.87,2.1.15,6.55,1.58,6.53,4.6-.03,5.26-1.63,11.16-5.26,15.69Z"/>
          <path class="cls-2" d="M1196.12,523.73c-4.44-5.51-8.12-10.09-11.05-16.04l23.48-10.74-12.44,26.78Z"/>
          <path class="cls-2" d="M1039.37,516.36c1.12,6.44-2.04,16.18-7.46,16.5-2.97.18-8.82-2.98-8.67-6.53.19-4.39,2.92-9.45,5.93-12.58,2.07-2.16,9.22-.08,10.21,2.61Z"/>
          <path class="cls-2" d="M1175.11,508.75l-23.26,5.18c1.36-7.84,4.47-14.43,8.64-21l14.62,15.81Z"/>
          <path class="cls-2" d="M875.43,618.16c-4.64-.06-9.18.29-13.9-.88l1.02-16.87,13.86.73c.09,5.9.02,11.06-.99,17.03Z"/>
          <polygon class="cls-2" points="1105.53 232.24 1094.3 217.37 1101.57 210.37 1115.98 224.74 1105.53 232.24"/>
          <polygon class="cls-2" points="236.49 584.36 224.91 593.03 216.7 579.73 226.83 571.49 236.49 584.36"/>
          <polygon class="cls-2" points="917.8 497.5 903.12 492.32 908.15 479.98 923.39 484.93 917.8 497.5"/>
          <path class="cls-2" d="M306.59,604.1l-13.03,7.54-8.05-11c4.75-2.37,8.44-5.02,12.93-8.94l8.15,12.4Z"/>
          <path class="cls-2" d="M1225.86,423.42c-7.1-2.22-12.82-6.32-18.91-10.87l20.01-8.22-1.1,19.1Z"/>
          <path class="cls-2" d="M1129.46,334.33c.26,4.38-3.7,8.71-7.72,9.33-6.24.95-12.22-10.94-9.65-20.01,6.34,9.14,17,4.61,17.37,10.69Z"/>
          <path class="cls-2" d="M363.63-.65l-8.57,3.41c-1.65-4.96-2.06-10.28-.85-15.14,1.29-5.13,5.67-8.24,10.58-8.19-.93,7.27-1.49,13.2-1.16,19.92Z"/>
          <path class="cls-2" d="M1097.32,324.08c-2.35,7.24-14.23,7.03-17.81,4.45-1.42-1.02-2.3-2.26-2.31-3.75-.04-4.14,8.6-7.54,15.43-7.02,3.16.24,5.7,3.24,4.7,6.31Z"/>
          <path class="cls-2" d="M1206.52,549.39c3.28,5.94-7.72,12.94-16.2,16.03,1.06-9.73,2.71-19.83,10.94-19,2.32.23,4.2,1.04,5.27,2.97Z"/>
          <path class="cls-2" d="M213.67,553.35c-2.38,3-5.5,4.96-9.11,6.86l-8.79-13.64,6.09-5.34c.8-.7,1.59-1.13,2.49-1.07,1.14.07,1.56,1.07,2.25,2.16l7.08,11.03Z"/>
          <polygon class="cls-2" points="255.69 607.3 242.78 618.47 235.8 608.61 247.73 599.72 255.69 607.3"/>
          <path class="cls-2" d="M933.91,446.89l-17.23-4.74,3.22-8.97,17.48,4.1c-.42,3.62-2.05,5.74-3.47,9.6Z"/>
          <path class="cls-2" d="M1262.09,492.23l-9.42-8.11c-.73-.63-1.61-1.12-2-1.6-.58-.72-.77-2.59.18-3.31l13.97-10.57-2.72,23.58Z"/>
          <circle class="cls-2" cx="1224.25" cy="507.27" r="7.54"/>
          <path class="cls-2" d="M953.71,451.74l-16.09-3.37c.59-3.65,1.99-6.36,3.58-9.69l15.79,2.97c-.53,3.92-1.87,6.32-3.28,10.1Z"/>
          <path class="cls-2" d="M347.23,5.87l-7.83,2.92-2.98-15.27,9.17-7.59c1.49,1.99.69,3.89.91,5.74.58,4.82,1.17,9.08.72,14.2Z"/>
          <path class="cls-2" d="M1224.12,395.09c-3.58.91-6.39-1.07-8.04-3.31-1.79-2.44-1.95-6.12.08-8.76s5.17-3.24,8.37-2.12c2.7.94,4.73,3.65,4.92,7.01.16,2.73-1.65,6.25-5.34,7.19Z"/>
          <path class="cls-2" d="M214.52,574.82c-3.03-1.34-3.62-4.17-5.2-6.44-.8-1.16-3.3-3.73-1.97-5.22l7.6-7.04,9.12,11.41-9.56,7.29Z"/>
          <path class="cls-2" d="M868.47,446.28l-17.09-6.77c.44-3.08,1.63-5.64,3.35-8.45l17.02,7.14-3.28,8.08Z"/>
          <path class="cls-2" d="M325.86,18.49c-2.54.82-7.59-1.22-7.1-4.11.99-5.91,5.63-10.29,10.04-14.56,1.37,4.21,4.28,7.86,4.33,12.17.04,3.13-4.56,5.62-7.27,6.5Z"/>
          <path class="cls-2" d="M1120.36,464.3c-.18,3.39-1.99,5.5-4.16,6.95-2.05,1.37-5.31,1.2-7.48-.61-2.35-1.97-2.69-5.26-1.9-8.07.72-2.57,3.15-5.25,6.35-5.59,4.36-.47,7.43,2.63,7.19,7.33Z"/>
          <path class="cls-2" d="M898.37,426.34c-1.52,2.95-2.81,5.06-3.38,8.2l-17.23-5.96c1.55-4.87,3.09-8.72,6.3-7.53l14.31,5.29Z"/>
          <path class="cls-2" d="M1334.87,377.39c-1.19,4.26-4.67,6.44-8.52,5.4-3.14-.84-5.6-4.66-4.9-8.27.82-4.25,3.97-7.06,7.98-6.48,3.85.55,6.68,4.95,5.44,9.35Z"/>
          <g>
            <polygon class="cls-2" points="118.92 272.23 102.26 268.36 109.02 240.23 125.61 244.28 118.92 272.23"/>
            <path class="cls-2" d="M174.92,191.72c-6.37-2.11-11.34-4.25-16.77-7.41l12.18-24.34c2.23.12,3.33,1.63,4.84,2.3,3.48,1.54,6.85,2.72,9.83,5.52l-10.09,23.93Z"/>
            <polygon class="cls-2" points="127.07 239.5 110.29 234.06 118.26 209.78 134.96 215.27 127.07 239.5"/>
            <polygon class="cls-2" points="187.83 161.76 173.76 154.56 186.19 129.48 200.4 136.83 187.83 161.76"/>
            <polygon class="cls-2" points="164.34 284.01 148.85 280.32 159.94 254.34 173.78 258.13 164.34 284.01"/>
            <path class="cls-2" d="M148.95,180.37l-13.71-6.01,14.3-25.58c4.37,1.4,7.94,3.39,12.05,6.08l-12.63,25.5Z"/>
            <polygon class="cls-2" points="47.86 373 33.75 368.8 41.34 342.1 55.56 346.19 47.86 373"/>
            <path class="cls-2" d="M127.49,130.8c-4.71-1.21-7.54-3.06-11.2-5.05l9.01-28.43c5.04,1.64,8.96,4.01,13.59,6.96l-11.4,26.52Z"/>
            <polygon class="cls-2" points="137.41 209.47 120.22 204.17 129.46 182.52 145.75 189.66 137.41 209.47"/>
            <polygon class="cls-2" points="152.9 245.05 137.75 241.25 145.56 218.21 162 223.07 152.9 245.05"/>
            <polygon class="cls-2" points="113.71 301.01 97.12 298.85 100.96 275.02 117.43 278.77 113.71 301.01"/>
            <polygon class="cls-2" points="165.18 149.43 153 143.25 165.64 119.18 177.91 125.72 165.18 149.43"/>
            <polygon class="cls-2" points="209.92 172.69 198.04 166.41 208.59 142.2 221.36 150.03 209.92 172.69"/>
            <path class="cls-2" d="M139.11,277.47c-3.66.14-6.86-1.47-10.88-2.48l7.45-27.71,14,4.66-10.56,25.53Z"/>
            <path class="cls-2" d="M195.78,203.1l-11.31-5.78,10.04-24.52c4.47,1.61,8.1,3.49,12.24,6.15l-10.97,24.14Z"/>
            <path class="cls-2" d="M170.43,204.63l-6.16,12.62-16.47-4.43,8.21-19.45,14.73,7.03c1.51.72.29,3.01-.31,4.24Z"/>
            <path class="cls-2" d="M26.74,367.31c-4.08-.01-6.88-1-10.72-1.9l6.58-29.37c3.89,0,7.93.81,11.3,2.94l-7.15,28.33Z"/>
            <path class="cls-2" d="M176.27,251.39c-4.91-.85-8.98-2.04-13.39-3.85l9.71-22.42,12.03,4.52-8.35,21.75Z"/>
            <polygon class="cls-2" points="57.86 339.05 44.26 334.55 51.57 313.28 64.01 316.6 57.86 339.05"/>
            <path class="cls-2" d="M127.39,169.78c-4.83-.64-9.33-2.35-8.17-4.97,3.9-8.79,8.49-16.62,13.35-25.16,3.25.79,6.31,2.15,8.75,4.74l-13.94,25.39Z"/>
            <path class="cls-2" d="M73.37,281.6c-4.18-.03-7.33-1.3-10.79-3l8.62-25.95c3.22.36,6.59,1.59,10.05,3.37l-7.87,25.58Z"/>
            <path class="cls-2" d="M112.97,164.36c-2.78-.29-4.92-.94-7.21-2.16l3.27-12.35,4.95-18.83c3.56,1.12,6.79,2.56,10.23,4.78l-11.23,28.56Z"/>
            <path class="cls-2" d="M148.17,79.08l-7.7,19.08-13.04-7.07c2.31-6.16,5.41-11.78,9.35-17.11.77-1.05,2.71-.59,3.56-.03l7.83,5.13Z"/>
            <path class="cls-2" d="M36.03,332.29l-12.19-3.22,6.41-22.71c4.26.64,8.01,1.55,12.02,3.32l-6.23,22.6Z"/>
            <path class="cls-2" d="M144.82,138.92c-3.37-.62-5.98-2.09-9.01-3.98l10.87-25c3.68,1.02,7.03,3.02,10.13,5.51l-11.99,23.46Z"/>
            <polygon class="cls-2" points="156.56 306.5 140.79 304.47 145.95 286.56 161.13 290.65 156.56 306.5"/>
            <path class="cls-2" d="M44.12,303.09c-4.38-.24-8.07-1.7-11.93-3.4l6.39-20.43,11.88,2.78-6.34,21.05Z"/>
            <polygon class="cls-2" points="180.4 120.56 168.57 114.49 176.05 96.53 188.58 104.88 180.4 120.56"/>
            <path class="cls-2" d="M103.81,198.44c-3.53-.71-5.97-2.07-8.94-3.52l8.31-22.07,11.72,4.48-11.09,21.11Z"/>
            <polygon class="cls-2" points="159.29 109.75 148.71 103.73 155.73 84.11 166.94 91.52 159.29 109.75"/>
            <path class="cls-2" d="M65.62,308.97l-11.4-2.67,5.88-20.89c3.83-.14,7.57,1.2,11.09,2.98l-5.57,20.58Z"/>
            <polygon class="cls-2" points="202.51 131.48 189.05 124.8 196.16 111.16 209.02 119.27 202.51 131.48"/>
            <polygon class="cls-2" points="234.01 128.32 219.98 119.4 227.15 108.27 241.13 117.23 234.01 128.32"/>
            <polygon class="cls-2" points="191.6 99.73 178.65 91.63 185.59 79.46 198.36 88.3 191.6 99.73"/>
            <path class="cls-2" d="M92.45,225.32c-2.87.28-5.62-1.19-8.13-2.94l8.98-21.89c3,.69,5.42,1.67,7.96,3.31l-8.81,21.52Z"/>
            <polygon class="cls-2" points="225.14 144 211.38 136.86 217.34 124.58 230.64 133.69 225.14 144"/>
            <polygon class="cls-2" points="83.19 250.56 73.93 247.16 80.91 228.36 90.26 231.69 83.19 250.56"/>
            <path class="cls-2" d="M212.14,114.3l-12.94-8.37c1.61-3.9,4-7.11,6.67-10.88l12.4,8.31-6.13,10.93Z"/>
            <polygon class="cls-2" points="131.89 303.36 123.53 302.36 126.6 281.38 136.64 283.66 131.89 303.36"/>
            <path class="cls-2" d="M170.16,85.65c-6.32-3.71-12.54-6.45-10.09-10.06l6.51-9.61,10.57,7.56-6.98,12.1Z"/>
            <polygon class="cls-2" points="187.46 223.71 175.49 220.25 181.65 205.67 192.56 211.24 187.46 223.71"/>
            <path class="cls-2" d="M150.65,73.79c-4.03-1.35-6.53-3.18-9.92-5.19l6.08-7.94c1.34-1.75,3-4.01,5.66-3.35,2.17.54,4.26,1.97,6.49,3.2l-8.3,13.27Z"/>
          </g>
          <path class="cls-2" d="M876.79,594.48c-4.41.62-8.36-.01-12.99-.61l.65-12.39,12.67.9-.33,12.11Z"/>
          <path class="cls-2" d="M1137.74,402.92c-6.56,1.26-12.11,1.89-18.84,1.78l9.09-16.23,9.76,14.45Z"/>
          <circle class="cls-2" cx="1276.91" cy="185.54" r="7.08"/>
          <circle class="cls-2" cx="1270.5" cy="217.81" r="7.02"/>
          <path class="cls-2" d="M1101.81,601.73c-4.17.44-7.68-1.63-8.18-4.93-.59-3.88,1.76-7.04,5.87-7.94,3.78-.82,7.95,1.31,8.68,5,.74,3.73-1.89,7.41-6.37,7.88Z"/>
          <path class="cls-2" d="M979.03,571.2c-2.02,2.72-4.87,3.68-7.43,2.71-3.21-1.21-4.46-3.6-4.3-7.21.1-2.24.7-4.2,2.16-5.44s3.54-1.86,5.87-1.5,3.97,2.59,4.68,4.27c1.06,2.5.59,5.06-.98,7.18Z"/>
          <path class="cls-2" d="M1352.91,479.01c-.73,1.37-5.07,1.68-5.8.33l-.24-23.92,6.23,1.01-.2,22.58Z"/>
          <path class="cls-2" d="M913,440.76l-14.39-4.59c.42-3.44,1.73-5.81,3.48-8.47l14.06,4.16-3.16,8.89Z"/>
          <path class="cls-2" d="M1136.6,597.69c-.54,3.44-3.84,4.31-6.65,4.3-2.53-.02-5.28-1.82-5.84-4.78-.6-3.15-.01-5.87,2.36-7.39,2.17-1.39,4.97-1.61,7.26-.34,2.7,1.49,3.49,4.26,2.87,8.21Z"/>
          <path class="cls-2" d="M1147.51,481.79c1.52,1.21-1.87,10.37-3.48,10.55-3.09.34-6.7-1.6-9.48-3.19l2.37-8.59c.37-1.35,1.85-2.17,3.26-1.55,2.31,1.02,5.37,1.21,7.33,2.78Z"/>
          <path class="cls-2" d="M1190.39,372.85c0,5.43-2.24,10.58-6.2,14.73-2.4-6.27-5.21-10.67-9.15-16.03,5.07-1.16,9.55-.03,15.35,1.3Z"/>
          <circle class="cls-2" cx="1135.12" cy="448.37" r="6.57"/>
          <path class="cls-2" d="M1120.6,216.22c-2.6,2.37-9.99-4.68-13.15-10.25l5.79-5.7c5.57,5.65,11.69,11.99,7.35,15.94Z"/>
          <circle class="cls-2" cx="1150.94" cy="466.29" r="6.43"/>
          <path class="cls-2" d="M1090.78,548.15c-4.01-.73-7.13-2.14-10.32-4.07,1.13-3.83,2.39-7.12,4.38-10.56,3.17.31,5.91,1.64,8.91,2.97l-2.97,11.67Z"/>
          <path class="cls-2" d="M1205.94,435.58c-2.09.8-4.3-1.42-5.16-3.35-1.24-2.81.21-9.32,3.53-10.01,4.02-.13,7.73,3.9,10.34,6.51-2.31,3.02-4.88,5.38-8.71,6.85Z"/>
          <path class="cls-2" d="M243.84,594.41l-10.48,9.13c-2.55-.85-6.03-4.86-4.87-7.52l10.43-7.91,4.92,6.3Z"/>
          <circle class="cls-2" cx="1303.27" cy="225.34" r="6.37"/>
          <g>
            <polygon class="cls-2" points="62.77 552.52 50.71 558.36 43.85 543.25 55.56 537.55 62.77 552.52"/>
            <polygon class="cls-2" points="70.14 548.62 63.38 534.75 75.16 529.33 81.78 543.03 70.14 548.62"/>
            <path class="cls-2" d="M61.87,507.84c-3.48,2.27-6.32,3.53-10.02,4.69l-8.31-12.51c1.99-2.36,4.53-4.52,7.78-5.82,4.58,3.58,7.6,8.1,10.55,13.64Z"/>
            <polygon class="cls-2" points="33.12 521.61 24.28 509 34.69 502.68 42.93 515.9 33.12 521.61"/>
            <path class="cls-2" d="M52.43,532.05l-10.65,6.23-5.78-10.1,10.73-6.2c2.46,2.99,3.95,6.2,5.7,10.08Z"/>
            <path class="cls-2" d="M71.29,524.57c-3.52,2.27-6.99,2.62-10.92,4.18-2.02-2.62-3.08-5.45-4.58-8.67,3.8-1.19,6.49-2.7,9.89-5.17,2.54,2.5,3.88,5.5,5.6,9.66Z"/>
          </g>
          <path class="cls-2" d="M1216.51,533.12c1.26,3.89-.98,8.02-4.53,9.24-2.5.86-5.05-1.05-6.08-2.55-1.48-2.15-1.04-4.98.27-7.05,1.22-1.93,2.97-2.85,5.01-3.03,1.84-.16,4.48.76,5.33,3.39Z"/>
          <circle class="cls-2" cx="1031.37" cy="252.41" r="6.05"/>
          <circle class="cls-2" cx="281.84" cy="70.73" r="6.07"/>
          <path class="cls-2" d="M910.86,272.83c-3.3.33-5.62-2.89-6.19-5.16-.69-2.75.86-6,3.72-7,3.52-1.23,6.82,1.12,7.57,4.19.8,3.27-.73,7.54-5.11,7.97Z"/>
          <circle class="cls-2" cx="890" cy="272.13" r="5.99"/>
          <path class="cls-2" d="M761.4,1.92c-3.2-.35-4.11-2.27-4.37-4.4-.32-2.61.71-4.6,3.17-5.96,2.38-1.32,5.19-1.36,7.17.4,1.75,1.56,2.18,4.3,1.28,6.87-.85,2.42-3.78,3.46-7.25,3.08Z"/>
          <circle class="cls-2" cx="261.16" cy="85.64" r="5.75"/>
          <path class="cls-2" d="M267.35,597.89l-7.22,5.83-6.38-7.61,7.3-5.78c2.76,1.92,3.89,4.37,6.3,7.56Z"/>
          <path class="cls-2" d="M246.63,573.08c.12,2.13-3.12,4.65-5.21,5.55-2.03-3.37-4.95-5.95-6.17-9.86-.14-1.81,3.36-3.79,5.16-4.34,2.23,2.75,4.49,5.04,6.22,8.65Z"/>
          <path class="cls-2" d="M659.88,115.3c-1.34,2.95-4.92,3-7.13,2.24-2.61-.9-3.97-3.44-2.9-6.61.9-2.67,4.31-3.27,6.66-2.63,2.6.71,4.8,3.85,3.37,7Z"/>
          <path class="cls-2" d="M1149.9,551.15c-3.68.18-6.95-.1-10.7-1.75,2-4.36,5.72-7,10-9.77l.69,11.53Z"/>
          <path class="cls-2" d="M898.2,352.16c-1.87,1.45-3.9.84-5.37-.59-2-1.96-2.28-4.98-.58-6.97,1.8-2.12,5.25-2.25,7.11,0,1.72,2.08,1.53,5.48-1.16,7.56Z"/>
          <path class="cls-2" d="M1098.98,447.16c-1.91,1.74-6.3.97-7.35-1.37-1.23-2.72,1.14-6.61,3.75-7.48,2.15-.72,3.71,1.44,4.42,2.72.96,1.75,1.3,4.2-.81,6.12Z"/>
          <path class="cls-2" d="M229.86,561.55c-2.66-2.29-4.31-4.87-5.81-7.85l5.8-3.49c1.72,1.7,4.15,3.83,4.46,6.51.21,1.81-2.3,3.59-4.45,4.83Z"/>
          <circle class="cls-2" cx="792.04" cy="138.3" r="4.6"/>
          <path class="cls-2" d="M1352.91,309.29l.17,15.2c-3.16-1.19-5.63-4.05-5.85-6.95-.25-3.33,1.54-6.99,5.68-8.25Z"/>
          <circle class="cls-2" cx="901.83" cy="366.05" r="4.56"/>
          <path class="cls-2" d="M249.53,588.97c-1.79,1.42-5.64-3.11-3.88-4.61l5.49-4.68c1.31-1.12,2.55.48,3.12,1.13.89,1,1.92,2.9.56,3.98l-5.29,4.19Z"/>
          <path class="cls-2" d="M913.4,364.56c-2.49-1.03-2.78-5.38-1.07-7.2,1.51-1.61,4.16-1.46,5.69-.26,1.37,1.07,1.67,3.61.77,5.4-.66,1.32-2.71,3.18-5.4,2.07Z"/>
          <path class="cls-2" d="M1287.09,102.84c-1.65-1.62-1.41-5.4.41-6.73s4.16-.79,5.31.69c1.16,1.49,1.21,4.01-.03,5.57-1.19,1.5-3.96,2.18-5.69.47Z"/>
          <circle class="cls-2" cx="1313.49" cy="101.28" r="4.01"/>
          <path class="cls-2" d="M1286.16,121.55c2.51-.56,4.15,1.47,4.46,3.21.37,2.08-.95,4.02-2.79,4.49-2.25.57-3.76-1.07-4.44-2.79-.84-2.11.05-4.3,2.77-4.91Z"/>
          <path class="cls-2" d="M922.62,376.05c1.13,2.13.47,4.65-1.11,5.6s-4.63.96-5.26-1.05c-.69-2.2.01-4.29,1.43-5.13,1.36-.81,4.12-.96,4.93.58Z"/>
          <path class="cls-2" d="M1008.01,221.88c-2.9,1.55-5.29-.24-5.34-2.99-.03-1.95,1.53-4.62,4.19-3.94,1.38.35,2.17,1.77,2.42,2.63.37,1.24.32,3.45-1.28,4.3Z"/>
          <circle class="cls-2" cx="1310.77" cy="116.65" r="3.7"/>
          <g>
            <path class="cls-2" d="M1160.37-49.39l13.62,1.33-14.56,20.61c-9.58,15.57-16.79,31.87-23.4,49-1.42,3.69-3.36,9.15-7.36,10.18-4.76,1.22-7.78-4.68-6.93-8.83,4.96-23.9,22.64-54.16,38.62-72.29Z"/>
            <path class="cls-2" d="M1351.37,79.21c-4.46-.84-7.12-2.72-10.15-4.8l3.84-13.52c1.42-5.01.3-10.24-.4-15.46-1.58-11.91-5.59-22.83-11.02-33.49,1.15-1.64,2.15-2.85,4.28-4.16l10.32,26.17c3.18,8.07,4.88,16.76,4.69,25.56-.04,1.58-.65,2.52-.77,4.72l-.8,14.99Z"/>
            <path class="cls-2" d="M1315.7,13.72l-13.59-15.19c3.48-1.88,4.8-3.8,5.49-8.17l14.91,18.31c-2.13,2.27-3.9,3.19-6.81,5.05Z"/>
            <path class="cls-2" d="M1335.22,32.69c-.29,2.16-4.21,3.32-6.23,3.38-2.12-6.57-4.76-12.4-8.1-18.65,1.73-1.93,3.87-2.92,6.45-3.08,3.46,5.56,6.66,11.26,7.89,18.36Z"/>
            <path class="cls-2" d="M1324.91,35.03c-2.23,2.42-4.81,3.25-7.93,4.33l-6.27-15.57c3.04-.75,4.38-1.86,6.21-4.89l7.99,16.14Z"/>
            <path class="cls-2" d="M1171.25-1.12c-2.01,2.58-5.53,4.38-8.63,5.98-3.39-1.18-5.71-6.87-4.8-10.55.79-3.14,2.17-5.48,4.52-7.86l8.91,12.42Z"/>
            <path class="cls-2" d="M1337.49,58.24l-7.66-.49,1.06-16.79,5.48-3.8c1.84,6.93,2.67,13.65,1.12,21.08Z"/>
            <path class="cls-2" d="M1312.38,14.28c1.17,2.3-2.33,5.01-4.11,5.37l-13.06-14.8,5.75-3.32c3.77,4.25,8.65,7.31,11.42,12.75Z"/>
            <path class="cls-2" d="M1322.2,62.56c-2.66-.13-4.5-1.08-6.32-2.5,1.21-4.65,1.84-8.83,1.38-13.85,2.33-1.06,5.14-1.18,7.35-.36l-2.41,16.71Z"/>
            <path class="cls-2" d="M1353.1,1.5c0,1.44-2.65,2.27-3.15,1.37l-5.58-10.05,8.72-6.09.02,14.77Z"/>
            <path class="cls-2" d="M1291.16-.48c-2.55,1.63-6.57-.78-9.89-3.83-1.63-1.5.3-6.46,2.5-5.73,5.62,3.55,10.95,7.3,7.39,9.57Z"/>
            <path class="cls-2" d="M1334.44,68.07c-1.08,1.44-5.2,0-5.84-1.9-.6-1.78.03-5.34,1.36-6.27,2.2-.51,4.78.37,6.72,1.11-.51,2.38-.58,4.86-2.24,7.06Z"/>
          </g>
          <path class="cls-2" d="M868.7,197.25c1.19,1.21.43,3.11-.46,4.09-.96,1.05-2.94,2.1-4.48.78-1.15-.98-.55-3.37.16-4.34.92-1.26,3.47-1.87,4.79-.53Z"/>
          <path class="cls-2" d="M919.12,342.28c1.25,1.02.38,4.46-.85,5.01-1.69.76-2.67-.36-3.36-1.07-.91-.95-1.54-2.86-.42-3.92.75-.71,3.41-1.01,4.63-.01Z"/>
          <path class="cls-2" d="M352.51,884.66h-18.04c12.43-39.65,9.77-83.14-9-120.71-9.46-18.93-21.82-35.67-36.31-50.94-18.86-19.88-40.75-35.79-66.37-45.76-39.67-15.44-85.99-21.92-127.36-11.24-19.44,5.02-36.31,14.31-51.55,27.15-8.64,7.28-16.75,14.04-24.19,22.68-21.76,25.25-39.66,52.83-54.14,82.91-8.91,18.49-14.84,37.43-16.76,57.95l-.25,32.44.41,5.52h-14.16s-.12-10.17-.12-10.17c-1.56-32.9,5.68-57.28,20.04-86.5,12.33-25.1,25.75-48.94,41.94-71.73,10.21-14.38,22-26.69,34.81-38.42l-23.65-32.27c3.11-1.93,5.35-3.44,7.68-5.81l22.25,31.04c2.86-2.56,5.73-5.05,6.66-8.25.66-2.24-1.41-5.13-2.41-6.95l-12.16-21.96c2.58-1.95,5.09-3.26,8.44-4.35l15.47,27.44c4.45-2.48,8.5-4.56,12.18-7.93l-37.65-66.75c3.5-2.06,5.58-3.88,9.24-4.92,14.81,21.95,27.33,44.47,39,68.02l14.81-6.17c-13.18-22.84-26.91-44.47-41.66-66.71,4.12-2.29,7.66-2.95,11.76-3.89,15.78,22.49,29.88,45.5,43.48,69.33,4.02.3,7.42.01,10.88-1.53l-41.88-72.33,7.46-4.47c1.25-.75,2.27-1.56,3.66-1.17,1.01.28,1.37,1.17,2.08,2.4l40.43,70c1.12,1.94,2.78,4.83,4.78,5.41l20.47.69c53.19,4.57,103.93,26.94,142.94,63.39,36.51,34.12,62.22,81.3,63.72,131.79.53,18.04-3.2,35.42-6.92,52.73Z"/>
          <path class="cls-2" d="M1015.37,49.28c3.92-19.09,20.87-31.94,40.03-29.33,12.95,1.76,18.84,16.34,22.84,28.55l14.79,45.16c4.92,15.02,10.87,28.7,17.97,42.9l38.11,67.29-8.63,8.44c-4.72-2.79-5.89-9.83-10.02-14.32-5.77-4.27-13.71-6.78-20.94-6.57-3.43.1-6.17,3.86-9.29,4.68-9.19,2.41-18.22-1.16-25.18-7.27-4.29-3.77-9.25-5.87-14.81-7.01-5.95-1.22-11-3.73-16.51-6.03-3.89-1.63-18.75,4.84-31.02-1.17-4.53-2.21-8.89-6.69-10.59-11.8-5.71-17.12-10.53-34.05-14.1-51.86-4-19.97-3.36-39.27-.18-59.26,2.54-16,7.55-31.06,14.32-45.47,1.57-3.35,4.21-5.28,6.13-7.86,5-6.71,11.09-11.22,19.37-12.95,5.58-1.16,10.88-1.91,16.6-1.32,10.24,1.06,19.46,3.68,28.27,9.49,29.39,19.4,43.13,52.49,52.82,85.75,10.1,34.63,22.85,67.79,39.49,99.77-3.78,2.17-5.47,5.28-7.57,5.2-1.27-.04-1.57-1.01-2.28-2.29-11.86-21.24-22.69-42.59-30.78-65.6l-10.15-34.43c-3.89-13.2-7.53-25.74-13.01-38.41-7.33-16.97-18.65-32.07-34.55-41.61-11.15-6.69-23.99-9.78-36.56-7.03-8.19,1.79-13.54,8.23-17.44,15.34-24.87,45.36-19.03,101.06,3.23,146.58,1.41,2.88,3.12,6.77,5.97,8.1,4.08,1.91,9.78.06,13.37-2.38l-7.53-15.11c-8.67-21-12.96-42.98-14.49-65.66-.74-11.04.04-21.27,2.35-32.52ZM1045.55,88.62c-.99-5.65,1.53-9.96,6.72-11.08,3.81-.82,8.95,1.49,10.2,6.24l8.42,32.05c5.25,15.4,11.2,29.89,18.81,44.24l11.18,21.07c7.66-2.3,14.34-.02,22.44,3.25l-23.49-39.74-8.06-17.75c-6.79-14.94-10.91-30.4-15.22-46.28-4.13-15.23-18.11-24.95-33.8-22.19-11.22,1.97-14.46,20.76-13.75,33.04,1.53,26.2,13.07,52.56,25.9,75.47,8.17,1.92,15.26,5.31,22.46,9.41,3.63,2.07,6.71,4.32,11.39,5.66-2.45-7.56-5.93-13.85-10.12-20.24-9.17-13.99-16.97-28.05-23.37-43.57-3.99-9.67-7.83-18.87-9.71-29.59Z"/>
          <path class="cls-2" d="M685.71,68.56l1.89-16.35c1.47-12.73,5.88-25.14,13.48-35.4l5.93-6.7c7.29-8.23,15.19-11.55,26.76-11.7,5.1-.06,9.04.77,12.89,4.08,3.43,2.94,4.96,7.16,5.06,12.95,10.67-5.85,21.59-9.32,33.35-11.75.55-2.82-.31-5.83-.59-8.94-.73-8.12,2.2-23.64,7.81-28.7l8.67-7.83c8.66-5.69,20.7-6.85,30.36-2.59,31.9,14.06,15.8,70.29,2.34,97.82-7.73,15.81-20.63,27.29-35.86,35.8-12.88,7.21-26.27,11.49-40.54,15.62-22.68,6.56-45.03,12.03-68.63,14.42-6.7.68-13.22-1.34-19-4.25-7.08-3.57-12.09-11.48-10.21-19.41,2.35-9.91,10.15-16.84,18.24-22.15,2.61-1.72,4.14-4.43,8.04-4.92ZM827.13-.22c7.13-3.62,8.97-10.89,5.84-17.76-1.31-2.88-3.51-5.69-5.82-6.39-9.44-2.89-19.43,7.81-21.46,19.3-.66,3.73.22,7.59,2.7,10.3,6.72-.77,12.83-2.45,18.74-5.45ZM781.37,40.04c3.08-2.25,5.8-5.25,8.06-8.14,3.02-3.86,3.77-8.24,3.71-13-.07-5.27-3.88-9.13-9.68-8.47-28.04,3.19-41.34,33.03-33.68,39.74,5.73,5.02,23.32-4.07,31.59-10.13ZM707.81,67.42c15.25-1.65,27.17-14,27.75-28.83.24-6.09-.91-12.18-6.62-14.79-13.78-6.29-30.87,15.77-29.95,35.91.23,5.07,3.53,8.28,8.82,7.71ZM804.71,71.65c11.31-8.18,18.67-23.76,10.95-30.62-2.26-2.01-5.81-3.4-9.67-2.67-14.71,2.79-28.44,10.94-38.33,22.12-3.33,3.76-5.32,8.09-5.51,12.93-.27,6.87,5.9,12.22,13.08,11.09,10.61-1.67,20.52-6.37,29.48-12.85ZM713.97,104.51c10.13,1,19.06-3.57,25.54-10.42,8.03-8.51,10.11-20.55,3.04-24.4-6.56-3.59-18.26,4.86-24.97,11.74-8.38,8.59-10.42,22.42-3.61,23.09ZM696.74,103.76c4.72-5.28,3.39-14.65-.94-19.34-5.39-5.84-26.99,6.11-23.24,16.26,2.23,6.04,17.6,10.44,24.17,3.08Z"/>
          <path class="cls-2" d="M205.06,344.64c-2.67,1.74-7.34.71-9.34-.97-1.1-4.47-.19-9.25.35-13.88,1.95-16.54,7.01-31.77,12.77-47.27-5.28-9.42-6.19-20.9.04-29.41,5.75-7.87,14.44-11.79,23.92-11.37,9.23-.12,16.37,5.71,18.14,14.77,2.28,9.99-1.8,19.91-9.3,26.87-6.6,6.13-15.18,9.28-24.75,8.08-6.12,17.1-10.12,34.42-11.84,53.18ZM234.9,265.28c0-3.59-2.91-6.5-6.5-6.5s-6.5,2.91-6.5,6.5,2.91,6.5,6.5,6.5,6.5-2.91,6.5-6.5Z"/>
          <circle class="cls-2" cx="614.6" cy="288.02" r="6.03"/>
          <path class="cls-2" d="M593.75,304.8c-2.8,1.63-5.96.09-7.22-1.91-1.67-2.66-.98-6.29,1.13-8.09s5.73-2.29,8.03.23c2.62,2.88,1.78,7.6-1.94,9.76Z"/>
          <circle class="cls-2" cx="644.95" cy="304.58" r="5.89"/>
          <path class="cls-2" d="M569.46,320.01c-2.66-1.35-2.83-4.21-2.37-6.78.32-1.79,2.19-3.83,4.87-4.17,3.67-.47,6.05,3.37,5.78,6.38-.35,3.94-4.36,6.56-8.28,4.57Z"/>
          <path class="cls-2" d="M669.83,319.37c-.55,2.46-2.78,2.92-4.72,2.36-1.55-.45-2.76-2.18-2.66-4.22.13-2.56,2.07-4.02,3.99-3.94,2.83.11,4.12,2.49,3.38,5.8Z"/>
          <g>
            <path class="cls-2" d="M210.38,518c-16.44,14.01-47.16,21.29-61.78,6.9-4.87-4.79-5.82-11.45-3.13-17.5,3.22-7.27,8.86-12.25,15.69-16.34,15.87-9.49,41.94-13.96,53.52,1.21,6.21,8.13,3.56,19.05-4.3,25.74ZM197.89,508.99c1.8-3.21,1.79-6.42.49-9.33-.9-2.03-3.51-4.11-6.35-5.18-9.58-3.62-24.68,2.26-28.72,12.9-2.24,5.9.68,11.9,7.25,13.55,10.26,2.56,21.95-2.32,27.32-11.93Z"/>
            <path class="cls-2" d="M182.4,511.77c-2.75.65-5.97.87-6.07-2.27-.15-4.65,8.92-9.16,12.06-5.21,2.53,3.18-3.07,6.79-5.98,7.48Z"/>
          </g>
          <g>
            <path class="cls-2" d="M44.6,479.56c-8.76,13.58-33.07,19.46-47.64,7.53-8.55-6.99-11.94-17.71-8.49-28.45,3.03-9.43,12.23-15.88,22.81-17.15,13.4-1.61,27.11,4.13,33.78,16.05,3.93,7.03,4.13,14.91-.46,22.02ZM29.58,474.62c3.73-5.56,3-12-1.25-16.72-7.31-8.12-20.02-7.39-27.12,1.2-5.31,6.42-3.35,16.29,3.85,20.59,8.25,4.92,19.05,3.09,24.52-5.07Z"/>
            <path class="cls-2" d="M19.27,470.35c-3.23,2.61-7.9,2.96-10.92.7-2.4-1.79-1.35-5,.6-6.68,3.1-2.66,7.55-3.77,10.99-.92,1.71,1.42,1.31,5.3-.67,6.89Z"/>
          </g>
          <g>
            <path class="cls-2" d="M156.36,338.99c1.26,7.22-2.5,14.15-9.99,16.01-18.13,4.49-37.59-.8-51.99-12.76-3.73-3.1-5.75-7.55-5.69-11.93s2.69-8.83,6.49-12.02c5.68-4.76,13.28-6.06,20.77-6.4,12.63-.57,24.25,4.18,32.59,13.4,3.6,3.98,6.78,7.77,7.81,13.7ZM132.81,342.51c4.07-1.73,6.64-5.06,7.03-8.61.42-3.84-1.31-7.06-4.19-9.84-5.8-5.59-15.16-7.07-22.37-3.23-3.29,1.76-5.1,5.09-5.23,7.84-.19,3.91,1,6.65,3.75,9.31,5.45,5.29,13.58,7.69,21.01,4.53Z"/>
            <path class="cls-2" d="M126.58,336.9c2.69-.16,5.15-2.76,3.78-5.17-2.87-5.03-12.2-5.42-13.51-1.27-.33,1.05-.11,2.44.63,3.34,2.15,2.64,5.16,3.33,9.1,3.1Z"/>
            <path class="cls-2" d="M126.58,336.9c-3.94.23-6.95-.47-9.1-3.1-.74-.9-.96-2.3-.63-3.34,1.31-4.15,10.64-3.75,13.51,1.27,1.37,2.41-1.09,5.02-3.78,5.17Z"/>
          </g>
          <path class="cls-2" d="M1317.5,316.83c-25.36,18.38-57.31,18.18-76.95-8.36-20.25,15.13-45.33,21.61-67.5,7.28-17.08,7.28-39.08,10.65-53.04-2.01-2.93-2.66-5.87-6.19-5.68-10.21.21-4.49,3.15-7.88,5.28-11.56,7.05-12.18,6.9-26.73-1.24-38.19-3.45-4.86-10.56-6.02-14.99-2l7.46,14.91c4.42,13.66-1.01,27.98-14.06,34.38-10.58,5.18-23.56,3.7-32.45-4.05-6.94-6.05-10.97-15.3-8.03-24.29,3.37-10.28,15.01-16.14,25.31-14.2,2.51.47,2.96,4.48,2.72,6.15-.89,6.25-13.27,2-16.01,13-1.33,5.37,1.67,9.99,6.69,12.58,6.4,3.31,14.62,3.52,19.95-2.05,12.34-12.91.02-33.95-15.86-42.71-19.36,5.28-33.68-1.53-44.74-18.33-8.06,12.1-18.97,24.76-33.28,19.88-7.07-2.41-13.26-7.8-16.06-14.94-1.15-2.93,2.72-6.74,5.45-5.68,4.82,1.86,8.3,10.82,17.17,10.67,4.06-.07,8.71-1.93,11.04-5.68l6.84-11c1.65-2.66,3.99-4.69,6.4-5.13,3.72-.68,6.43.48,9.02,2.97l9.11,8.77c6.11,5.89,14.49,8.66,22.95,6.5l11.28-4.23c3.79,5.18,7.66,10.17,14.02,11.81,5.09,1.31,10.87,1.04,15.87-.71,8.17-2.86,12.57-10.85,20.33-9.53,6.21,1.06,8.97,13.01,19.57,20.68,2.24,1.62,5.43.04,7.26-1.28l12.65-9.14c5.32-2.61,11.37-.19,16.45,2.11,9.38,4.25,18.19,8.83,28.02,11.61,8.58,2.42,14.26-6.5,18.47-15.2l22.08,12.18c18.7,8.03,40.4,5.66,55.79-7.8l7.07-13.17c.91-1.69,4.3-.53,5.54.4,3.11,2.33,1.77,7.26,3.07,9.42.8,1.32,7.28,2.53,9.02,6.95,3.86,9.85,4.84,20.07,4.32,30.81,3.01,1.24,6,.72,9.29.69l-.03,12.57-12.29-1.64c-5.71,10.88-13.44,19.66-23.26,26.78ZM1159.16,303.31c2.09-.76,2.79-2.83,1.96-5.01-4.32-11.34-6.49-22.87-6.81-34.98-6.47-1.35-10.73-5.32-14.13-10.35l-7.31-10.81c-1.95-1.22-6.96,1.94-6.01,3.81l7.39,14.45c5.5,12.6,3.8,26.18-4.04,37.46-.76.76-2.32,3.49-1.2,4.39,7.46,5.98,22.61,7.47,30.15,1.03ZM1285.03,315.71c8.73-1.12,16.18-5.08,22.9-10.13,12.27-9.21,18.37-23.77,19.28-39l-.79-15.07c-21.92,19.39-52.89,29.12-80.28,14.76-.65,6.93-1,13.25-.2,19.75,2.35,19.16,19.41,32.2,39.1,29.69ZM1232.77,269.78c-9.37,2.39-26.66-1.34-34.22-5.03l-23.76-11.61c-9.07,8.62-5.68,33.92.85,43.97,5.55,8.54,15.41,12.35,25.63,11.94,20.75-.82,31.94-18.87,31.49-39.27Z"/>
          <path class="cls-2" d="M1287.52,305.13c-6.69,2.15-13.73-2.19-14.7-8.55-1.15-7.56,2.17-13.64,8.97-16.37,3.99-1.6,8.34-1.19,11.72,1.37,3.22,2.44,4.85,6.39,4.41,10.97-.56,5.8-4.46,10.67-10.4,12.58ZM1288.26,292.43c0-1.68-1.36-3.04-3.04-3.04s-3.04,1.36-3.04,3.04,1.36,3.04,3.04,3.04,3.04-1.36,3.04-3.04Z"/>
          <circle class="cls-2" cx="1196.97" cy="288.52" r="11.43"/>
          <path class="cls-2" d="M1207.91,216.6c-10.33.41-18.06-5.34-22.29-13.72-4.83-9.56-13.47-26.93-10.26-34.51,1.82-4.3,6.18-6.32,10.44-7.49,14.95-4.13,29.44-7.87,45-8.78,6.31-.37,13.81,2.49,15.01,9.2,4.57,25.62-13.15,54.32-37.89,55.31ZM1203.69,199.04c11.59-8.71,21.79-19.09,28.66-32.06.56-1.05-2.98-2.33-3.79-1.65l-12.61,2.46-27.76,5.29c3.34,11.55,6.88,30.39,15.5,25.97Z"/>
        </g>
        <g>
          <path class="cls-2" d="M1439.33,268.76c-12.33-4.32-19.13-14.88-18.1-27.63l2.24-12.4c.56-3.08-.35-5.65-2.82-7.28l-16.83-11.12c-3.36-2.22-6.33-4.5-8.7-7.66-9.07-12.08,12.97-16.68,18.78-25.68,1.92-2.98-5.09-11.92,3.34-17.77,9.07-6.3,21.71-4.55,32.24-9.79,8.44-4.2,13.01-12.7,13.62-22.09.36-5.55-.71-13.17,3.9-14.56,7.15-2.16,13.41,16.22,4.77,30.94-15.3,26.06-45.07,19.22-46.62,24.78-.73,2.63,6.65,8.71,2.67,14.65-3.56,5.32-9.03,8.46-14.82,10.89l-7.99,3.35c1.27,3.16,4.06,3.81,6.51,5.19,7.88,4.43,15.67,8.18,23.04,13.99,12.07-12.56,23.89-24.7,42-21.22,9.43,1.81,19.05.72,26.62-5.42,3.01-2.44,5.91-7.01,5.12-10.91-1.12-5.54-.09-9.73,4.22-13.36l11.31-9.52c4.64-3.9,5.48-10.52,1.22-14.86-2.95-3.01-6.94-3.48-10.89-4.15-10.5-1.79-14.96,4.99-17.93,15.44-1.45,5.1-4.51,8.56-8.15,12.16-4.78,4.72-9.5,9.31-16.23,11.05-3.73.97-8.83-1.16-8.43-5.43s4.33-7.22,7.29-9.74c14.3-12.18,25-30.74,15.66-49.09,5.82,1.33,9.69,5.12,14,8.38,11.66,8.81,19.45,6.53,27.83,10.33,7.36,3.34,12.11,9.88,12.95,17.25.93,8.24-3.63,15.59-10.15,20.3-5.7,4.12-7.98,9.73-8.74,16.5-1.54,13.71-20.48,24.13-33.21,24.16l-12.51.03.13,23.4c.03,5.83,6.76,9.35,12.14,10.15,5.26-13.74,13.59-24.88,24.93-33.73l14.45-11.28c9.35-7.3,16.48-16.63,19.19-28.31,2.85-12.26,8.3-29.6,18.07-36.75l18.7,12.54c3.59,2.41,6.9,4.98,9.89,8.61-10.38,2.49-19.66,3.44-29.58,4.52-1.55.17-4.3,1.31-3.56,3.28,1.83,4.86,10.87,7.03,9.7,12.66-1.38,6.62-11.22,4.26-17.8,7.6l11.65,9.54c4.42,3.62,8.67,7.38,10.78,13.3-3.78,1.56-7.52.94-11.4.66-9.72-.7-19.06-1.34-28.72-.72-5.04.33-2.96,7.1-7.29,10.68-6.86,5.67-13.06,11.72-18.94,18.41-6.18,7.03-8.17,16.09-5.48,25.42-15.45-1.18-34.72-6.36-40.66-19.73-1.87-4.21-1.17-8.7-.22-13.05l4.04-18.44c-6.52,3.99-10.83,9.32-15.62,14.6l-8.13,8.95c-4.13,4.55-7.15,8.83-7.02,15.17.3,14.8,18.26,10.35,20.21,16.96.5,1.69-.33,3.86-1.89,4.94-4.43,3.04-9.64,2.7-14.76.91Z"/>
          <path class="cls-2" d="M1594.09,346.29c13.84-37.95,36.36-73.12,58.45-106.66,19.76-30,27.37-62.56,33-97.85,8.08-50.65,27.29-83.32,61.24-120.22l8.69-9.44c8.32-9.04,15.91-18.36,20.96-29.63,4.1-9.17,6.61-18.94,3.85-28.65l-3.41-12.04c-.56-1.96,2.04-3.61,3.49-4.05,8.29-2.52,17.22,21.66,9.39,45.62-3.67,11.24-8.99,21.73-16.81,30.78l-21.52,22.07c-28.25,28.98-46.3,69.03-54.09,108.69l-6.8,41.7c-2.91,17.86-10.61,33.89-19.76,49.44l-28.63,48.58c-12.98,22.02-24.73,43.94-35.61,67.6l-12.44-5.92Z"/>
          <path class="cls-2" d="M1578.22,341.92c-7.28-.48-3.06-11.86.06-20.02,7.17-18.74,15.86-36.11,25.96-53.42l21.83-37.43c16.47-28.24,26.08-58.85,31.15-91.16,2.99-19.04,6.34-37.07,11.57-55.57,6.22-22.02,17.88-41.77,34.73-57l21.34-19.29c13.99-12.65,30.07-32.9,28.08-51.95-.89-8.54-6.48-15.2-3.82-18.41,1.69-2.03,8.24-1.94,10.63,2.33,6.69,11.96,7.08,25.82,1.76,38.54-4.71,11.29-11.56,20.95-20.12,29.71l-28.44,29.1c-29.53,33.43-34.29,64.91-40.4,107.69-2.67,18.67-6.93,36.17-14.23,53.61s-15.37,33.05-25.24,48.76l-21.68,34.52c-11.49,18.29-21.37,36.74-28.28,57.12-.72,2.12-3.43,2.96-4.9,2.86Z"/>
          <path class="cls-2" d="M1655.09-48.72l-.44,72.97-.79,36.78c-.31,14.38-2.37,27.92-4.37,42.29-2.65,19.12-6.93,37.16-10.98,56-6.78,31.59-12.85,55.34-31.74,82.06-9.66,13.66-19.02,26.71-27.06,41.46-9.59,17.62-16.69,35.67-24.67,54.34-3.65-.9-6.91-2.61-10.31-5.12,6.3-16.76,12.91-32.73,20.47-48.96,6.38-13.7,14-25.89,22.15-38.53,7.35-11.41,13.75-22.57,19.95-34.63,10.23-19.91,16.61-40.33,21.3-62.23,6.96-32.47,12.54-64.41,14.24-97.57l.58-29.95V-10s-.57-38.83-.57-38.83l12.24.11Z"/>
          <path class="cls-2" d="M1630.02-48.37l.4,15.64.71,26.53.06,56.91c.01,10.55-1.27,20.31-2.85,30.83l-10.25,68.16c-5.32,35.42-18.72,55.42-39.33,83.15-10.52,14.15-19.82,28.44-27.01,44.58-8.24,18.48-14.08,37.01-19.99,56.6-4.03-.53-8.41-1.77-11.33-4.13-1.26-1.57.55-4.23.97-5.56l8.96-28.53c6.46-20.59,15.72-39.9,27.89-57.7l19.81-26.21c9.29-12.29,16.06-25.69,20.46-40.41,8.91-29.78,14.27-61.4,17.5-92.31,1.46-13.94,3.47-26.84,3.5-40.82l.17-75.26c0-4.16-.52-8.09-.85-12.05l11.18.59Z"/>
          <path class="cls-2" d="M1483.65,704.4c-3.63-1.67-5.33-4.75-7.76-7.57l-39.61-45.97c-22.44-26.04-50.77-41.19-83.68-50.36v-23.12c17.28,4.94,33.24,11.06,48.8,19.46,14.33,8.38,27.33,17.84,39.1,29.42l19.93,21.5c11.88,14.74,22.49,29.98,32.71,46.01l-9.48,10.61Z"/>
          <path class="cls-2" d="M1553.78,638.71c-2.4,2.99-5.2,5.16-8.85,7.39l-16.82-22.55c-15.67-21.01-31.39-41.3-48.64-61.08-11.23-12.89-22.73-24.41-36.65-34.33-20.8-14.82-44.48-24.15-69.83-27.54-6.64-.89-15.38-1.5-15.73-7.32-.24-3.9,4.46-7.82,10.29-7.64,40.99,1.29,74.65,19.41,103.45,47.79l9.08,8.95,19.73,22.41c19.14,23.84,36.74,48.26,53.97,73.91Z"/>
          <path class="cls-2" d="M1522.61,662.55l-24.32-29.38-32.46-38.42c-10.93-12.94-21.78-25.17-34.5-36.33-22.51-19.73-49.41-26.22-78.66-31.61l-.05-15.92c15.95,3.53,31.01,6.73,46.22,12.3,25.98,9.51,48.2,25.78,65.75,47.07l29.25,35.49,38.57,48.29-9.8,8.51Z"/>
          <path class="cls-2" d="M1507.66,679.62c-4.09-2.47-6.58-6.14-9.59-9.61l-31.86-36.68c-12.69-14.61-25.63-28.02-40.22-40.82-11.32-9.93-24.43-16.54-38.71-21.32l-34.64-8.86.02-19.33c27.82,6.39,61.55,19.14,81.44,39.07l26.11,26.16c19.9,19.94,37.28,41.54,55.03,63.59l-7.59,7.79Z"/>
          <path class="cls-2" d="M1448.91,135.16c.23,3.82-4.81,5.88-8.3,4.78-16.69-5.26-31.87-13.2-46.7-22.69.1-15.47,5.12-30.82,5.91-46.28,2.08-40.63-19.61-74.98-47.28-103.14l.17-21.77c16.33,14.09,28.49,30.85,38.49,49.3l4.95,10c7.67,15.51,12.24,31.92,12.85,49.3,1.27,17.3-.57,36.82-4.39,53.98l38.13,20.71c2.21,1.2,5.97,2.41,6.18,5.83Z"/>
          <path class="cls-2" d="M1462.78,396.35c-2.06-1.4-4.39-3.5-3.14-6.02l17.31-34.93c9.15-18.47,22.65-54.93,24.54-74.49.42-4.29-.94-10.09,1.67-13.83l26.21-22.07c1.66-1.4,3.33-2.69,5.66-2.3-1.28,13.24-10.98,18.75-19.81,27.17-6.09,5.81,4.53,23.65-6.46,52.76-9.5,25.18-21.25,49.08-35.41,71.81-2.51,4.03-6.79,4.48-10.58,1.9Z"/>
          <path class="cls-2" d="M1540.32,95.96c-.89,6.25,15.78,7.8,25.19,8.57l-2.45,18.65c-10.07-4.94-19.15-10.09-28.21-15.86-4.07-2.59-5.21-7.14-4.62-11.94,1.46-11.7,15.38-15.08,27.24-18.98.86-29.29-.53-58.02-3.45-87.03-.86-8.58-12.59-8.93-18.66-18.09-4.97-7.51-2.77-16.9,4.59-22.06,5.84-4.09,12.98-5.51,20.14-6.15.92,3.37,1.29,8.57-2.08,10.21-4.51,2.19-10.54,2.24-13.86,6.56-2.5,3.26-.02,8.13,2.98,10.41,8.31,6.3,13.26,4.71,14.33,13.05,2.56,19.82,5.51,39.1,5.98,59.18.27,11.73-1.59,22.76-2.83,34.31-.29,2.76.06,5.59-1.5,7.98-7.92,2.02-22.11,6.25-22.81,11.18Z"/>
          <path class="cls-2" d="M1639,574.14c-4.14,3.57-7.81,5.58-12.36,8.1-19.41-29.28-38.42-57.86-59.43-85.62-.94-1.24-2.26-1.75-1.97-3.36.22-1.22,1.5-1.58,3.07-2.24,2.11-.88,4.99-4.07,7.53-3.11l5.74,6.02c21.66,24.72,40.57,51.12,57.42,80.21Z"/>
          <path class="cls-2" d="M1587.92,573.65l-30.53-44.77c-11.5-16.86-23.89-32.24-37.92-47.73l9.61-9.71c25.24,30.4,48.55,61.37,70.42,94.63l-11.58,7.58Z"/>
          <path class="cls-2" d="M1389.2,424.99c-6.5,13.39-21.91,17.8-36.52,13.11l-.04-13.29c7.76,4.81,13.34,3.87,19.73-2.6,4.23-3.38,6.1-8.69,5.21-14.3-2.13-13.38-11.77-23.63-24.92-27.19l-.12-46.85c2.1.76,2.69,2.64,2.52,4.77-1.13,7.05-1.22,14.15-.29,21.01.78,5.7,3.82,8.91,8.91,10.91,20.84,8.19,36.02,32.8,25.52,54.43Z"/>
          <path class="cls-2" d="M1414.02,333.44c-7.35,8.65-19.15,11.36-29.38,7.5-10.02-3.79-15.56-13.55-14.08-24.21,1.37-9.81,8.92-17.38,17.42-19.9,10.15-3.01,21.07-.44,27.23,7.78,6.59,8.79,6.02,20.34-1.2,28.83ZM1406.23,319.55c0-6.23-5.05-11.28-11.28-11.28s-11.28,5.05-11.28,11.28,5.05,11.28,11.28,11.28,11.28-5.05,11.28-11.28Z"/>
          <path class="cls-2" d="M1519.43,444.22c-4.04,1.45-7.68-2.95-7.65-6.76.03-3.92.8-7.77,2.15-11.69l26.08-75.48c1.09-3.16,5.47-4.05,7.46-3.38,2.28.78,4.94,4.21,4.03,7.54-7.68,28.39-16.69,56.09-26.62,83.84-.84,2.35-2.92,5-5.45,5.92Z"/>
          <path class="cls-2" d="M1659.04,562.22l-10.28,6.85c-19.98-30.67-40.85-60.28-62.88-89.91l7.08-7.05c.87-.86,2.44.06,3.16,1.04l37.61,51.05c9.05,12.29,17.06,24.23,25.31,38.03Z"/>
          <path class="cls-2" d="M1446.59,358.65c-1.33-.77-.23-2.83.3-3.73,14.71-24.9,27.15-51.7,25.83-81-.13-2.96.64-6.17,2.38-8.38,1.11-1.41,3.85-1.37,5.08-.57,5.46,3.54,4.4,19.56,3.25,29.32-2.99,25.32-12.18,49.08-26.14,70.54l-10.7-6.19Z"/>
          <path class="cls-2" d="M1377.38,177.35c.17,16.15-10.02,30.31-24.79,36.96l.03-70.78c14.28,5.43,24.6,18.28,24.76,33.82Z"/>
          <path class="cls-2" d="M1451.05,121.76c-13.48-6.03-25.65-12.47-38.21-19.64l1.24-13.6.68-11.81.31-45.13,10.94.19-1.76,61.43,31.33,15.01-4.54,13.55Z"/>
          <path class="cls-2" d="M1600.37,435.96c-.38,4.83-.23,10.75-3.93,14.32-3.21,1.67-8.76-2.13-10.38-5.6l5.81-86.66,11.53,2.64c.63,25.33-1.02,49.98-3.03,75.29Z"/>
          <path class="cls-2" d="M1472.41,512.19c-12.74-10.32-25.24-19.78-39.79-26.74l-32.33-11.74c-1.34-.49.8-3.2,1.61-4.07l6.29-6.76c28.13,6.33,53.92,19.92,74.79,40.07l-6.93,7.52c-.63.68-1.93,3.13-3.65,1.73Z"/>
          <path class="cls-2" d="M1574.88,443.04l-14.38-1.79,3.49-18.38,4.82-35.6c1.77-13.09,1.89-33.73,10.7-31.41,2.81.74,4.61,3.2,4.24,6.36l-2.14,18.48-3.91,38.95-2.83,23.4Z"/>
          <path class="cls-2" d="M1450.07,383.71c0,11.15-9.03,20.18-20.18,20.18s-20.18-9.04-20.18-20.18,9.03-20.18,20.18-20.18,20.18,9.04,20.18,20.18ZM1439.73,383.55c-.5-5.46-5.65-8.77-10.21-8.21-4.26.52-8.42,4.35-8.17,9.18.26,5.13,4.9,8.78,9.57,8.58,4.47-.19,9.31-4.12,8.82-9.54Z"/>
          <path class="cls-2" d="M1492.49,419.59c-.84-2.78-.16-5.65.78-8.19l13.42-36.38,7.73-28.86c.72-2.7,3.99-3.85,6.04-3.6,2.76.35,5,2.83,4.26,6.2-5.28,24.17-12.14,47.7-20.83,70.63-.92,2.44-3.61,3.97-5.24,4.23-2.36.38-5.24-1.01-6.16-4.04Z"/>
          <path class="cls-2" d="M1503.38,484.27c-1.79,3.35-4.69,5.56-7.25,8.28-11.69-11.74-23.36-22.23-37.5-30.01l-25.36-11.96c2.37-3.52,5.78-6.49,9.42-8.58,6.64-3.79,36.32,18.51,45.51,27.47l15.17,14.78Z"/>
          <path class="cls-2" d="M1397.56,141.71c4,5.71,6.42,11.75,1.82,14.15-4.39,2.28-8.56-3.43-12.52-8.92-10.02-13.87-21.59-25.8-34.17-37.54l.14-16.28c17.56,12.29,32.48,31.11,44.73,48.59Z"/>
          <path class="cls-2" d="M1515.66,476.25c-2.56-1.47-4.3-2.94-6.16-4.79-14.56-14.47-29.56-27.85-46.81-40.03l10.36-7.44,50.17,43.58-7.56,8.68Z"/>
          <path class="cls-2" d="M1352.71,478.79l-.17-22.62c20.38,1.55,36.01-7.2,52.67-19.03-3.01,9.7-9.72,16.58-16.57,23.27-10.3,8.73-22.05,14.65-35.94,18.38Z"/>
          <path class="cls-2" d="M1576.76,575.97c-3.04,3.26-6.53,4.22-10.29,6.65l-31.17-44.37c2.98-3.44,5.97-6.04,9.82-8.31,11.19,15.03,21.55,29.62,31.64,46.03Z"/>
          <polygon class="cls-2" points="1483.57 21.83 1448.29 9 1453.95 -9.2 1488.39 3.81 1483.57 21.83"/>
          <rect class="cls-2" x="1526.99" y="546.1" width="12.75" height="55.59" transform="translate(-39.91 1027.05) rotate(-36.59)"/>
          <polygon class="cls-2" points="1479.08 41.23 1444.92 33.26 1446.96 15.83 1482.9 24.51 1479.08 41.23"/>
          <path class="cls-2" d="M1540.23,523.89c-2.68,3.57-5.93,5.59-9.45,8.31l-28.7-32.87c-1.3-1.49-2.18-3.09-.44-4.75l6.25-5.94,11.39,11.36,9.67,10.55,11.27,13.33Z"/>
          <path class="cls-2" d="M1517.52,543.93c-3.63,1.95-5.73,3.48-8.75,6.5l-30.49-33.07,9.59-9.5c11.28,10.97,20.8,23.09,29.65,36.07Z"/>
          <path class="cls-2" d="M1352.57,290.79l.09-12.78c21.25-4.08,19.12-21.99,24.8-27.63,1.89-1.88,5.6-.06,6.38,2.59,5.48,18.81-11.87,35.9-31.26,37.83Z"/>
          <path class="cls-2" d="M1427.45,25.04l-10.67-.76c-1.82-4.88-4.05-9.15-6.77-13.58l9.17-23.85,12.81,14.11-4.54,24.08Z"/>
          <polygon class="cls-2" points="1474.85 63.8 1443.07 57.31 1443.93 40.79 1476.72 49.48 1474.85 63.8"/>
          <polygon class="cls-2" points="1470.67 88.92 1442.21 81.6 1442.83 66.22 1473.56 71.86 1470.67 88.92"/>
          <path class="cls-2" d="M1544.56-6.71c-2.31,3.36-6.26,3.97-9.62,5.63-4.41,2.18-9.94,3.85-14.47,1.11-3.73-2.26-4.63-7.18-3.98-11.32.56-3.61,3.15-7.28,7.04-8.99,4.28-1.88,8.32-.34,11.26,2.98,3.06,3.45,6.85,6.08,9.77,10.58Z"/>
          <path class="cls-2" d="M1580.88,465.44c-7.1,6-18.49,5.43-24.24-1.98-1.31-1.7-1.15-5.82-.21-7.47,4.7-8.24,20.88-8.26,25.99-.52,2.12,3.22,1.83,7.12-1.54,9.97Z"/>
          <polygon class="cls-2" points="1381.07 19.79 1360.27 27.52 1353.04 10.18 1371.63 2.38 1381.07 19.79"/>
          <path class="cls-2" d="M1584.23,614.07l-13.34-22.46c-.5-.84-.55-2.62.36-3.13l9.92-5.66,13.61,22.96-10.55,8.29Z"/>
          <path class="cls-2" d="M1602.69,89.32c.59,4.4-15.32-3.8-18.93-7.44-2.76-2.78,1.8-6.33,3.82-7.64,5.82-3.78,10.34-7.91,17.2-11.28.59,9.03-1.09,17.4-2.08,26.36Z"/>
          <path class="cls-2" d="M1386.78,68.17l-22.93-3.32.02-12.79c7.56-.17,14.65-.34,22.27.63l.64,15.47Z"/>
          <path class="cls-2" d="M1574.38,624.17c-2.2,2.98-4.3,4.62-7.02,6.99l-18.91-25.23,10.39-5.64,15.55,23.88Z"/>
          <path class="cls-2" d="M1605.57,43.81c-7.53-3.53-13.35-7.65-19.45-11.92-1.1-1.57-.74-3.43.85-4.34l17.8-12.18.81,28.44Z"/>
          <polygon class="cls-2" points="1615.71 591.68 1603.97 599.2 1592.22 579.76 1603.74 572.7 1615.71 591.68"/>
          <path class="cls-2" d="M1593.88,108.07c-5.66,2.66-10.79,4.52-17.4,5.7l1.4-22.26c5.46,1.86,10.84,3.68,14.9,7.63,2.76,2.32,3.8,6.03,1.1,8.93Z"/>
          <path class="cls-2" d="M1598.49,53.56c-5.07,6.88-12.63,10.9-20.76,13.38l1.33-23.31,19.42,9.93Z"/>
          <path class="cls-2" d="M1510.68,66.27c-3.23,4.13-9.84,3.69-13.32.76-4.13-3.48-5.04-8.94-1.43-12.97,3.39-3.79,8.77-3.67,12.54-.97,3.94,2.82,5.78,8.62,2.21,13.18Z"/>
          <path class="cls-2" d="M1595.39,9.43c-5.37,4.02-10.43,7.85-17.36,11.05-2.07-6.79-2.25-13.69-2.8-21.09,7.82,1.61,14.27,4.28,21.06,7.52.53.95.17,2.1-.9,2.51Z"/>
          <path class="cls-2" d="M1513.14,33.48c-3.04,1.2-5.76-.17-7.46-1.8-3.96-3.81-3.89-12.02.88-15.75,2.37-1.85,5.91-2.18,8.65-.37,3.04,2.02,4.1,5.81,3.86,9.15-.25,3.44-1.97,7.21-5.92,8.77Z"/>
          <path class="cls-2" d="M1381.02,89.17l-19.85-5.45c.11-3.41.54-6.41,1.38-9.58.55-.84,2.94-.53,3.9-.31l17.23,3.92-2.67,11.42Z"/>
          <path class="cls-2" d="M1424.37,275.97c-.49,5.23-12.37,7.41-17.91,4.82-5.6-2.62-6.34-14.07-2.65-15.29,1.16-.39,1.86.49,2.77,1.28,5.08,4.39,11.08,6.91,17.8,9.19Z"/>
          <polygon class="cls-2" points="1385.59 39.7 1363.22 43.57 1362.04 36.2 1383.27 28.76 1385.59 39.7"/>
          <path class="cls-2" d="M1395.17,378.79l-20.16-13.91c6.5-3.74,13.34-3.96,20.46-3.68l-.3,17.58Z"/>
          <path class="cls-2" d="M1432.62,427.96c-3.13,3.21-10.13,2.53-12.46-1.8-1.65-3.07-.62-9.6,1.65-12.2,3.88-.82,9.09,2.1,11.88,4.76,2.65,2.53,1.73,6.38-1.06,9.24Z"/>
          <path class="cls-2" d="M1432.83,342.01c.46,2.77.12,4.85-1.1,6.63-2.36,3.43-10.6,3.8-13.51-1.27-1.63-2.85-1.53-6.78.89-9.33,1.97-2.08,5.54-2.22,8.32-1.58,2.01.46,4.89,2.42,5.4,5.55Z"/>
          <path class="cls-2" d="M1458.26,412.71c-4.03,5.5-11.21,11.86-15.16,9.71-.83-.45-1.46-1.54-2.3-3.17-1.72-3.36-.19-9.62,3.81-10.94,4.96-1.64,10.07.84,13.64,4.4Z"/>
          <circle class="cls-2" cx="1371.92" cy="231.86" r="6.79"/>
          <path class="cls-2" d="M1365.7-5.9c-4.09,3.31-8.33,4.84-13.14,6.75l.1-14.52c.01-1.67,2.84-3.19,4.35-3.05l8.69,10.82Z"/>
          <path class="cls-2" d="M1413.67,358.03l-15.93.61c.77-5.68,4.95-9.98,10.25-12.72,3.08,3.36,4.7,6.94,5.68,12.11Z"/>
          <path class="cls-2" d="M1360.01,309.75c4.24,3.25,3.27,10.5-.46,12.91-2.24,1.44-4.9,1.63-7.06.74l.04-14.8c2.38-.73,5.39-.46,7.49,1.15Z"/>
          <path class="cls-2" d="M1372.63,358.08c-3.71,1.91-7.14-.64-8.46-3.36-1.57-3.24-.67-7.11,2.84-8.66,3.34-1.48,6.42.37,8.07,3.21,1.49,2.58.97,7.05-2.44,8.81Z"/>
          <path class="cls-2" d="M1981.84,884.06h-18.04c12.43-39.65,9.77-83.14-9-120.71-9.46-18.93-21.82-35.67-36.31-50.94-18.86-19.88-40.75-35.79-66.37-45.76-39.67-15.44-85.99-21.92-127.36-11.24-19.44,5.02-36.31,14.31-51.55,27.15-8.64,7.28-16.75,14.04-24.19,22.68-21.76,25.25-39.66,52.83-54.14,82.91-8.91,18.49-14.84,37.43-16.76,57.95l-.25,32.44.41,5.52h-14.16s-.12-10.17-.12-10.17c-1.56-32.9,5.68-57.28,20.04-86.5,12.33-25.1,25.75-48.94,41.94-71.73,10.21-14.38,22-26.69,34.81-38.42l-23.65-32.27c3.11-1.93,5.35-3.44,7.68-5.81l22.25,31.04c2.86-2.56,5.73-5.05,6.66-8.25.66-2.24-1.41-5.13-2.41-6.95l-12.16-21.96c2.58-1.95,5.09-3.26,8.44-4.35l15.47,27.44c4.45-2.48,8.5-4.56,12.18-7.93l-37.65-66.75c3.5-2.06,5.58-3.88,9.24-4.92,14.81,21.95,27.33,44.47,39,68.02l14.81-6.17c-13.18-22.84-26.91-44.47-41.66-66.71,4.12-2.29,7.66-2.95,11.76-3.89,15.78,22.49,29.88,45.5,43.48,69.33,4.02.3,7.42.01,10.88-1.53l-41.88-72.33,7.46-4.47c1.25-.75,2.27-1.56,3.66-1.17,1.01.28,1.37,1.17,2.08,2.4l40.43,70c1.12,1.94,2.78,4.83,4.78,5.41l20.47.69c53.19,4.57,103.93,26.94,142.94,63.39,36.51,34.12,62.22,81.3,63.72,131.79.53,18.04-3.2,35.42-6.92,52.73Z"/>
        </g>
      </g>
    </g>
  </g>
</svg>